<svg width="60" height="60" viewBox="0 0 60 60" fill="none" xmlns="http://www.w3.org/2000/svg">
<circle cx="30" cy="30" r="30" fill="#F5F6FA"/>
<path d="M18.9235 16.0474V16.5789V17.1104V19.0372C18.9235 20.964 17.4499 22.4921 15.592 22.4921H12.0682H11.5556C11.3634 22.4921 11.2353 22.4921 11.1072 22.5585C11.2353 23.5552 12.1323 24.3524 13.1574 24.3524H16.8733C17.2577 24.3524 17.7062 24.4853 18.0266 24.7511L20.269 25.7161C20.333 25.7825 20.4612 25.7825 20.5893 25.7825C20.6534 25.7825 20.7174 25.7825 20.8456 25.7161C21.0378 25.6496 21.1018 25.4503 21.1018 25.251V18.3063C21.1018 17.044 20.1408 16.0474 18.9235 16.0474Z" fill="#17479E"/>
<path d="M11.5557 21.3633H12.0682H15.656C16.9374 21.3633 17.9625 20.3002 17.9625 18.9714V17.1111V16.5796V16.048V15.4817C17.9625 14.1529 16.9374 13.0898 15.656 13.0898H9.31326C8.03189 13.0898 7.0068 14.1529 7.0068 15.4817V23.2236C7.0068 23.4229 7.13493 23.6223 7.26307 23.6887C7.32714 23.6887 7.45528 23.6887 7.51934 23.6887C7.64748 23.6887 7.71155 23.6887 7.83969 23.6223L10.2743 21.8284C10.5306 21.629 10.7868 21.5626 11.0431 21.4297C11.1712 21.4297 11.3634 21.3633 11.5557 21.3633Z" fill="#ED1C24"/>
<mask id="mask0_1111_12410" style="mask-type:luminance" maskUnits="userSpaceOnUse" x="18" y="11" width="38" height="45">
<path d="M56 14.4227L21.97 11L18.0815 52.5773L52.1115 56L56 14.4227Z" fill="white"/>
</mask>
<g mask="url(#mask0_1111_12410)">
<path d="M30.2404 46.422C30.2849 46.1712 30.3389 45.9222 30.383 45.6719C30.4389 45.3547 30.4657 45.0323 30.5051 44.712C30.5203 44.5886 30.5306 44.4642 30.5527 44.3421C30.5652 44.2721 30.5469 44.2386 30.4859 44.2075C29.7234 43.8189 29.0027 43.3582 28.3163 42.8394C27.8109 42.4574 27.3313 42.0422 26.8771 41.5973C26.592 41.3179 26.3176 41.0264 26.0517 40.7263C24.8078 39.3228 23.8084 37.7516 23.0629 36.011C22.5634 34.8444 22.3165 33.6131 22.2689 32.3378C22.2455 31.7103 22.2694 31.0837 22.2861 30.4566C22.2996 29.9469 22.2969 29.4365 22.3327 28.9276C22.3596 28.5458 22.3909 28.1636 22.4609 27.7875C22.61 26.9862 22.8113 26.2018 23.1293 25.45C23.3445 24.9413 23.5463 24.4266 23.7962 23.9344C23.9483 23.6352 24.1275 23.3544 24.331 23.0905C24.4569 22.9272 24.457 22.8303 24.3198 22.6748C24.0561 22.3759 23.8643 22.0413 23.8259 21.6271C23.8004 21.3529 23.8447 21.0875 23.9128 20.8254C24.0179 20.4219 24.1924 20.0544 24.4653 19.743C24.9524 19.1867 25.5682 18.8958 26.2801 18.8117C26.6327 18.7701 26.9875 18.7721 27.342 18.7723C27.5041 18.7725 27.6578 18.736 27.8033 18.662C27.9574 18.5836 28.1195 18.5228 28.2518 18.4C28.3617 18.2979 28.3909 18.2229 28.3393 18.0763C28.2712 17.8831 28.1916 17.6934 28.1372 17.4962C28.0433 17.1557 28.0913 16.8304 28.2547 16.5167C28.4872 16.0704 28.8206 15.7203 29.2003 15.4117C29.5909 15.0945 29.9918 14.7942 30.4409 14.5681C30.9954 14.2889 31.5836 14.1332 32.1899 14.0449C32.8136 13.9539 33.4402 13.9499 34.0671 14.0045C35.1356 14.0977 36.1268 14.4463 37.0642 14.9757C37.256 15.0839 37.4536 15.181 37.6488 15.2831C37.6776 15.2982 37.7073 15.3239 37.7292 15.2726C37.8398 15.014 38.0698 14.9075 38.2962 14.7978C38.4404 14.728 38.6008 14.7074 38.7473 14.6504C39.1698 14.4857 39.5876 14.5928 40.0057 14.6524C40.7275 14.7553 41.3786 15.0786 42.0385 15.3716C42.2782 15.4779 42.5061 15.6164 42.7511 15.7056C43.0129 15.8009 43.2556 15.9304 43.4942 16.0705C44.2434 16.5103 44.9991 16.9388 45.7169 17.4335C46.2978 17.8337 46.8368 18.2885 47.3664 18.7581C47.6365 18.9975 47.8805 19.2586 48.1232 19.5259C48.5032 19.944 48.8655 20.3766 49.2017 20.8318C49.7857 21.6225 50.2784 22.4731 50.6926 23.3716C51.3708 24.8435 51.8345 26.3839 52.0581 28.0001C52.151 28.6713 52.1992 29.3455 52.2041 30.0238C52.2085 30.6384 52.1767 31.2504 52.1093 31.8606C51.9696 33.124 51.6837 34.3517 51.2572 35.5438C50.7853 36.8631 50.1554 38.0961 49.3645 39.2397C48.972 39.8073 48.5449 40.3457 48.0789 40.8509C47.7645 41.1919 47.4406 41.5223 47.1017 41.8376C45.3275 43.4888 43.2863 44.6283 40.9891 45.2789C40.9105 45.3011 40.8746 45.3271 40.8496 45.4236C40.7728 45.7197 40.6805 46.012 40.6061 46.3092C40.5425 46.5634 40.4821 46.8185 40.4223 47.0737C40.3553 47.3587 40.2878 47.6437 40.2252 47.9298C40.1699 48.183 40.1259 48.4389 40.0686 48.6915C39.9971 49.0071 39.9232 49.3222 39.8392 49.6342C39.7294 50.0428 39.6007 50.4451 39.4113 50.8232C39.2145 51.2159 38.9668 51.5655 38.6083 51.8183C38.3958 51.9681 38.161 52.0227 37.9041 52.0217C37.7106 52.0208 37.5198 52.0009 37.3293 51.9788C36.924 51.9317 36.5552 51.7847 36.231 51.5228C35.9658 51.3086 35.7153 51.0831 35.5206 50.7922C35.1121 50.1822 35.1016 49.3035 35.6267 48.7244C35.9661 48.3503 36.3798 48.2424 36.8453 48.2514C37.018 48.2546 37.1877 48.2882 37.3565 48.3253C37.3586 48.3293 37.3607 48.3331 37.3627 48.3371C37.3648 48.3353 37.367 48.3333 37.3692 48.3314C37.366 48.3285 37.3627 48.3256 37.3594 48.3227C37.3495 47.9477 37.3345 47.5725 37.2964 47.1995C37.2513 46.7585 37.1946 46.3189 37.1489 45.8781C37.1429 45.8196 37.1294 45.8167 37.0808 45.8167C36.3083 45.8145 35.5398 45.7544 34.7768 45.6292C34.4622 45.5776 34.1481 45.5196 33.8383 45.4403C33.8017 45.431 33.7766 45.4221 33.7464 45.4744C33.6801 45.5887 33.6246 45.7084 33.5639 45.8251C33.4318 46.0793 33.3055 46.3369 33.1812 46.5955C33.0724 46.8215 32.9726 47.0521 32.8635 47.278C32.7868 47.4368 32.7023 47.5914 32.6281 47.752C32.5615 47.8962 32.4734 48.0298 32.4034 48.1726C32.2349 48.5167 32.0346 48.8398 31.8112 49.1478C31.664 49.3508 31.5004 49.5406 31.3111 49.701C31.0115 49.9547 30.691 50.1778 30.2868 50.1931C30.0274 50.2029 29.7818 50.1141 29.5391 50.0281C29.2241 49.9164 28.9277 49.772 28.6729 49.5397C28.5237 49.4038 28.4101 49.2401 28.283 49.0863C28.0988 48.8634 27.9702 48.6086 27.8717 48.3366C27.7361 47.9626 27.7339 47.5841 27.8444 47.2017C27.9324 46.8977 28.1056 46.6479 28.3379 46.4571C28.7045 46.1562 29.125 46.0731 29.5887 46.1793C29.8184 46.2318 30.0283 46.3211 30.2366 46.4244C30.2388 46.4282 30.2409 46.4322 30.2432 46.4361C30.2453 46.4342 30.2475 46.4322 30.2497 46.4304C30.2465 46.4273 30.2433 46.4244 30.2403 46.4213L30.2404 46.422ZM27.4599 19.3245C27.1687 19.35 26.8836 19.4066 26.6014 19.4866C26.0472 19.6439 25.5394 19.8887 25.1335 20.3204C24.7799 20.6965 24.5388 21.1311 24.5752 21.68C24.5927 21.9437 24.6534 22.2012 24.8305 22.4029C25.0251 22.6246 25.069 22.8644 24.942 23.1298C24.7787 23.4708 24.6219 23.817 24.4333 24.143C23.9077 25.0516 23.5675 26.0304 23.3663 27.0645C23.2842 27.4865 23.2032 27.909 23.1377 28.334C23.0629 28.8206 22.995 29.3084 22.9624 29.8011C22.9354 30.2102 22.9586 30.6202 22.922 31.0296C22.8892 31.3964 22.9012 31.7657 22.9349 32.1333C22.9359 32.2017 22.9308 32.271 22.9389 32.3386C23.0206 33.02 23.0697 33.705 23.2816 34.3659C23.5019 35.0532 23.7187 35.7396 24.0467 36.3817C24.4404 37.1528 24.9305 37.8627 25.3623 38.6099C25.6065 39.0324 25.8889 39.4285 26.183 39.816C26.3924 40.0921 26.6036 40.365 26.854 40.6025C27.1133 40.8486 27.3812 41.0847 27.657 41.3105C28.6123 42.0923 29.6409 42.7511 30.7467 43.2786C31.7568 43.7606 32.8052 44.1234 33.8934 44.3629C34.4887 44.4938 35.0878 44.5928 35.6945 44.6414C35.7176 44.6444 35.7406 44.649 35.7637 44.6504C36.2264 44.682 36.6893 44.6988 37.1534 44.6906C37.5375 44.6838 37.9204 44.664 38.3021 44.6262C39.069 44.5502 39.8249 44.4081 40.5691 44.2015C41.195 44.0277 41.8077 43.8126 42.4047 43.5512C43.1299 43.2338 43.8257 42.8577 44.4923 42.4221C44.972 42.1087 45.4309 41.7659 45.8754 41.4024C46.1382 41.1873 46.3808 40.9472 46.6256 40.71C46.9696 40.3767 47.2931 40.0235 47.5984 39.6525C48.2554 38.8539 48.8261 37.9933 49.3156 37.0747C49.6351 36.475 49.9192 35.8574 50.1488 35.2149C50.4088 34.4872 50.6121 33.7427 50.7665 32.9826C50.8602 32.5213 50.925 32.0561 50.9879 31.5907C51.0394 31.2091 51.0473 30.823 51.0625 30.438C51.0822 29.9438 51.0691 29.4508 51.0399 28.9576C50.9935 28.175 50.885 27.4015 50.7237 26.636C50.4899 25.5263 50.1435 24.4546 49.704 23.4146C49.4051 22.7078 49.0527 22.0312 48.6289 21.3971C48.3344 20.9563 48.0138 20.5347 47.6889 20.1174C47.6684 20.0911 47.6529 20.0585 47.6196 20.0452C47.5117 19.8974 47.4185 19.7343 47.293 19.6047C46.926 19.2256 46.5355 18.8725 46.1274 18.5412C45.9612 18.4063 45.8004 18.2635 45.6154 18.1551C45.6022 18.1405 45.5909 18.1232 45.5753 18.1117C44.9446 17.6435 44.2787 17.2372 43.5792 16.889C43.0208 16.6111 42.4389 16.3881 41.8814 16.1074C41.5688 15.9498 41.2448 15.8142 40.9121 15.7045C40.7886 15.629 40.6542 15.5798 40.5185 15.5351C40.2506 15.4464 40.002 15.3009 39.7184 15.2573C39.278 15.1894 38.8536 15.2377 38.4413 15.4142C38.3462 15.4549 38.2905 15.5131 38.2687 15.6184C38.2029 15.9368 37.9109 16.058 37.6602 15.973C37.3899 15.8815 37.1405 15.7455 36.8945 15.6039C35.85 15.0027 34.7435 14.6359 33.5397 14.6135C32.9975 14.6033 32.4593 14.6307 31.9265 14.7383C31.5172 14.821 31.1146 14.928 30.7385 15.122C30.7259 15.1252 30.7127 15.1268 30.7009 15.1322C30.2688 15.328 29.903 15.6215 29.5746 15.9668C29.4053 16.1447 29.2462 16.3331 29.143 16.5636C28.986 16.8326 28.9066 17.1206 28.9535 17.4365C28.9747 17.5787 29.0097 17.7188 29.0283 17.8612C29.0997 18.4115 28.8761 18.8034 28.441 19.0014C28.2094 19.1069 27.9654 19.1896 27.7166 19.2499C27.6302 19.2708 27.5412 19.2842 27.46 19.3251L27.4599 19.3245ZM35.6069 49.4652C35.5875 49.6684 35.649 49.8235 35.7372 49.8644C35.8608 49.9217 36.0284 49.9246 36.1174 49.7782C36.1423 49.7371 36.1763 49.6964 36.2097 49.6607C36.4703 49.3821 36.7832 49.2312 37.1641 49.2632C37.2396 49.2696 37.3078 49.2585 37.375 49.2237C37.47 49.1742 37.5101 49.0628 37.4577 48.9701C37.339 48.7602 37.1547 48.6377 36.9406 48.5505C36.6568 48.4349 36.3842 48.4882 36.1327 48.6287C35.7945 48.8176 35.672 49.1607 35.607 49.4654L35.6069 49.4652ZM29.5725 47.2307C29.6763 47.2225 29.7771 47.28 29.8839 47.3152C29.98 47.3467 30.0643 47.3149 30.1367 47.2413C30.1918 47.1855 30.1713 47.1213 30.1489 47.0685C30.0207 46.7679 29.8226 46.545 29.5007 46.467C29.3093 46.4206 29.1203 46.4324 28.9423 46.5158C28.6612 46.6475 28.4855 46.8836 28.3729 47.1745C28.3416 47.2553 28.3619 47.3343 28.4126 47.3967C28.5459 47.5606 28.6561 47.559 28.8418 47.4306C29.0608 47.2792 29.2927 47.1912 29.5727 47.2307L29.5725 47.2307Z" fill="#451611"/>
<path d="M35.6949 44.6415C35.0881 44.5929 34.489 44.4941 33.8938 44.363C32.8054 44.1235 31.757 43.7607 30.747 43.2787C29.6413 42.751 28.6126 42.0924 27.6574 41.3106C27.3816 41.0848 27.1137 40.8487 26.8543 40.6026C26.604 40.3651 26.3928 40.0922 26.1833 39.8161C25.8893 39.4286 25.607 39.0325 25.3627 38.61C24.9309 37.863 24.4407 37.1529 24.047 36.3818C23.719 35.7396 23.5024 35.0533 23.282 34.366C23.0701 33.7051 23.021 33.0201 22.9392 32.3387C22.9311 32.2711 22.9363 32.202 22.9352 32.1334C22.976 32.0916 22.9653 32.0356 22.9638 31.9876C22.9547 31.6857 22.9789 31.3848 22.9952 31.0842C23.0231 30.5661 23.1097 30.0545 23.1781 29.5412C23.2353 29.5561 23.2106 29.6021 23.2071 29.6344C23.1698 29.9847 23.205 30.333 23.2474 30.6789C23.2957 31.0728 23.3608 31.4643 23.3994 31.8596C23.4895 32.7768 23.6927 33.6672 23.9972 34.5322C24.2401 35.2223 24.5446 35.8824 24.9188 36.5075C25.0538 36.733 25.1931 36.9535 25.3827 37.1351C25.8703 37.602 26.4418 37.9231 27.0582 38.1638C27.3523 38.2787 27.6575 38.3581 27.9585 38.4507C28.5207 38.6235 29.072 38.8285 29.6186 39.047C29.9702 39.1877 30.2984 39.3702 30.5745 39.6459C30.803 39.8741 30.9933 40.1349 31.1926 40.3879C31.4792 40.7517 31.8081 41.0593 32.2092 41.2834C32.6836 41.5484 33.1903 41.7072 33.7179 41.8073C33.8981 41.8414 34.0804 41.8516 34.2598 41.8845C34.6266 41.9515 34.9957 41.991 35.3674 41.9654C35.7556 41.9386 36.143 41.9005 36.5289 41.8431C37.1068 41.7573 37.6763 41.6346 38.2378 41.4703C38.9581 41.2596 39.6563 40.9873 40.333 40.6563C41.1633 40.25 41.9471 39.7618 42.6756 39.1839C43.063 38.8767 43.4376 38.5516 43.7928 38.2025C44.1905 37.8117 44.5023 37.3598 44.7452 36.854C44.8869 36.559 44.9528 36.241 44.9935 35.9168C45.0514 35.4533 45.0502 34.982 45.1635 34.5256C45.2576 34.1473 45.3826 33.7838 45.6186 33.4723C45.8146 33.2135 46.0522 33.0115 46.3744 32.9611C46.5109 32.9398 46.5918 32.8764 46.6601 32.7604C46.9709 32.233 47.2384 31.6888 47.334 31.0691C47.3904 30.7039 47.4599 30.3406 47.5115 29.9746C47.5379 29.7882 47.5406 29.5978 47.5528 29.4093C47.5852 28.9088 47.5999 28.4088 47.5894 27.9073C47.5815 27.5303 47.568 27.1536 47.5166 26.7806C47.442 26.2372 47.2897 25.713 47.1109 25.1983C46.8857 24.5497 46.614 23.9218 46.2751 23.3272C46.174 23.15 46.0762 22.97 45.9504 22.809C45.8673 22.7026 45.7565 22.6242 45.6841 22.5051C45.646 22.4426 45.5714 22.4152 45.4943 22.4057C45.4025 22.3944 45.3102 22.3791 45.2211 22.3543C44.8304 22.2458 44.4932 22.0392 44.2205 21.7303C43.7117 21.1538 43.5008 20.4652 43.5465 19.692C43.5628 19.4172 43.6302 19.1472 43.7472 18.8999C43.8743 18.6316 44.0536 18.4134 44.3615 18.3466C44.5791 18.2995 44.6581 17.9932 44.5037 17.8283C44.4461 17.7668 44.3852 17.7097 44.3159 17.6611C44.201 17.5806 44.09 17.4939 43.9775 17.4096C44.0062 17.4168 44.0364 17.4204 44.0635 17.4321C44.3576 17.5575 44.6526 17.6812 44.9447 17.8116C45.1355 17.8967 45.3372 17.962 45.4915 18.1202C45.5199 18.1494 45.5633 18.1837 45.6147 18.1546C45.7994 18.2631 45.9605 18.4058 46.1267 18.5407C46.5348 18.8721 46.9253 19.225 47.2923 19.6041C47.4177 19.7337 47.5109 19.8969 47.6189 20.0447C47.6192 20.1392 47.6727 20.2209 47.6789 20.3145C47.6814 20.3515 47.7057 20.3975 47.6763 20.4221C47.6432 20.4497 47.6022 20.4151 47.5683 20.3998C47.4165 20.3316 47.2659 20.2729 47.0937 20.2781C46.8678 20.285 46.6883 20.4204 46.6199 20.6454C46.5584 20.8474 46.5926 21.0461 46.6228 21.2449C46.6799 21.6207 46.8839 21.9259 47.0843 22.2291C47.4725 22.8162 47.8304 23.4222 48.1588 24.0469C48.5867 24.8608 48.9628 25.6996 49.2493 26.5791C49.386 26.9992 49.5025 27.4252 49.5841 27.8613C49.6514 28.2216 49.7023 28.584 49.7317 28.9493C49.7588 29.2868 49.7655 29.625 49.7622 29.9639C49.7605 30.1454 49.7573 30.3269 49.7551 30.5084C49.7518 30.769 49.7403 31.0283 49.6943 31.2847C49.6441 31.5638 49.5872 31.8418 49.5397 32.1214C49.4937 32.3913 49.4509 32.6614 49.3724 32.9239C49.2397 33.3673 49.0776 33.7985 48.8865 34.2187C48.6363 34.7688 48.3401 35.2892 47.97 35.7613C47.697 36.1098 47.4004 36.433 47.0019 36.633C46.9292 36.6696 46.8599 36.6889 46.774 36.66C46.5631 36.5892 46.3447 36.574 46.127 36.6211C45.4981 36.7572 45.061 37.1463 44.8079 37.748C44.62 38.1948 44.5215 38.673 44.41 39.1455C44.3757 39.2907 44.3592 39.4434 44.2517 39.5604C44.1852 39.6329 44.1399 39.7217 44.0903 39.807C43.7352 40.4196 43.2705 40.9261 42.7197 41.3541C42.4082 41.5961 42.0837 41.8143 41.7419 42.0048C41.2409 42.284 40.7165 42.5077 40.1755 42.6888C39.6668 42.8591 39.1484 42.9902 38.6212 43.0796C38.086 43.1703 37.5477 43.2262 37.0046 43.2425C36.6672 43.2526 36.3295 43.2573 35.9944 43.2341C35.4521 43.1966 34.9116 43.1364 34.3778 43.018C33.9537 42.9241 33.5355 42.8127 33.1266 42.6649C32.4786 42.4306 31.8635 42.1262 31.3006 41.7157C31.0346 41.5217 30.7861 41.3058 30.5573 41.0645C30.4862 40.9893 30.4352 40.8924 30.3421 40.84C30.4086 40.7278 30.4789 40.617 30.4757 40.4773C30.5182 40.3884 30.5145 40.2925 30.5099 40.198C30.4972 39.9331 30.3777 39.7117 30.2315 39.5056C30.0916 39.3085 29.8927 39.233 29.6641 39.2685C29.3929 39.3106 29.2745 39.4726 29.2564 39.7941C29.057 39.7201 28.8495 39.6771 28.6432 39.6317C28.3818 39.5743 28.1156 39.5364 27.8619 39.447C27.4233 39.2924 26.9799 39.146 26.5703 38.9199C26.089 38.6542 25.6383 38.3381 25.2296 37.9606C25.1431 37.8807 25.0521 37.8065 24.9762 37.7141C24.9076 37.6308 24.8315 37.5543 24.7586 37.4749C24.7751 37.569 24.8381 37.6259 24.8886 37.6912C25.1335 38.0081 25.3819 38.3224 25.6573 38.612C25.9184 38.8865 26.2042 39.1322 26.505 39.3584C26.8947 39.6511 27.2884 39.9378 27.7148 40.1716C27.9815 40.3178 28.2517 40.4568 28.5164 40.6066C28.9654 40.8606 29.3121 41.2422 29.6649 41.6148C29.8805 41.8426 30.0893 42.0776 30.313 42.2966C30.6226 42.5996 30.9725 42.8507 31.3295 43.0889C31.8638 43.4454 32.4355 43.7277 33.0244 43.9719C33.2389 44.0609 33.4544 44.1475 33.6832 44.1957C33.8937 44.2401 34.1042 44.2832 34.3159 44.3215C34.6314 44.3785 34.9401 44.4694 35.2573 44.5206C35.4049 44.5444 35.5577 44.5651 35.6941 44.6407L35.6949 44.6415ZM47.1246 33.7165L47.1054 33.6924L47.106 33.6936C47.0942 33.6262 47.0393 33.6009 46.9898 33.5792C46.6264 33.4209 46.3291 33.4832 46.0572 33.7963C45.8442 34.0415 45.7286 34.3356 45.6686 34.6618C45.6122 34.9682 45.6098 35.2669 45.6936 35.5652C45.7091 35.6208 45.7104 35.6906 45.7761 35.7199L45.7746 35.7189C45.7821 35.7271 45.7896 35.7351 45.797 35.7432C45.9127 35.9415 46.065 36.0898 46.2941 36.1326C46.3045 36.1789 46.347 36.1822 46.3787 36.1943C46.7136 36.3229 47.0646 36.2044 47.267 35.9537C47.6314 35.5026 47.7977 34.9802 47.6396 34.384C47.5789 34.1551 47.4716 33.9594 47.2949 33.8071C47.2612 33.778 47.2191 33.7416 47.2143 33.8304C47.1898 33.7999 47.1652 33.7696 47.1409 33.7391C47.1615 33.71 47.1307 33.7217 47.1232 33.7151L47.1247 33.7165L47.1246 33.7165ZM41.1212 41.0996C41.1294 41.0402 41.1184 40.9847 41.0932 40.9306C40.985 40.699 40.6711 40.6247 40.4627 40.7741C40.3055 40.8866 40.2339 41.0445 40.2174 41.2316C40.2118 41.2949 40.2222 41.3697 40.292 41.4077C40.3611 41.6144 40.5072 41.7106 40.7122 41.7182C40.922 41.7259 41.1141 41.5855 41.12 41.3649C41.1223 41.2763 41.1098 41.1877 41.1214 41.0996L41.1212 41.0996ZM44.4786 21.476C44.4844 21.5521 44.548 21.5831 44.5934 21.6242C44.7821 21.7952 45.0822 21.8935 45.312 21.7668C45.5389 21.6419 45.629 21.4249 45.6698 21.1799C45.7548 20.6706 45.6434 20.1959 45.4139 19.7474C45.3707 19.6631 45.3401 19.5617 45.2474 19.5118C45.1435 19.3364 45.0224 19.1785 44.8406 19.0826C44.8614 19.068 44.8532 19.054 44.8381 19.0432C44.7149 18.9544 44.5832 18.9112 44.4361 18.973C44.2844 19.0365 44.1778 19.1544 44.1055 19.301C43.9043 19.7084 43.8868 20.1366 43.9987 20.5719C44.0222 20.6632 44.0357 20.7678 44.1183 20.8335C44.1952 21.0739 44.3048 21.2943 44.4787 21.476L44.4786 21.476Z" fill="#B77C3B"/>
<path d="M30.3422 40.8409C30.4354 40.8931 30.4864 40.9903 30.5575 41.0654C30.7862 41.3067 31.0348 41.5226 31.3008 41.7166C31.8636 42.1271 32.4788 42.4315 33.1268 42.6658C33.5356 42.8136 33.9539 42.9248 34.3779 43.0189C34.9118 43.1373 35.4523 43.1975 35.9946 43.235C36.3298 43.2583 36.6674 43.2533 37.0047 43.2434C37.5479 43.2271 38.0861 43.1713 38.6213 43.0805C39.1488 42.9911 39.667 42.86 40.1756 42.6897C40.7166 42.5086 41.2412 42.2849 41.7421 42.0057C42.0839 41.8152 42.4084 41.597 42.7198 41.355C43.2707 40.9268 43.7354 40.4205 44.0905 39.808C44.1399 39.7226 44.1854 39.6336 44.2519 39.5613C44.3594 39.4445 44.376 39.2917 44.4101 39.1465C44.5215 38.6739 44.6201 38.1958 44.8081 37.749C45.0611 37.1472 45.4983 36.7581 46.1272 36.622C46.3449 36.5749 46.5633 36.5902 46.7741 36.6609C46.86 36.6897 46.9294 36.6705 47.0021 36.6339C47.4006 36.4339 47.697 36.1107 47.9702 35.7622C48.3403 35.2899 48.6365 34.7695 48.8867 34.2196C49.0778 33.7994 49.2398 33.3683 49.3726 32.9249C49.451 32.6623 49.4941 32.3921 49.5399 32.1223C49.5874 31.8427 49.6444 31.5647 49.6944 31.2856C49.7405 31.0292 49.7519 30.7699 49.7552 30.5093C49.7574 30.3278 49.7607 30.1463 49.7624 29.9648C49.7655 29.626 49.759 29.2877 49.7318 28.9502C49.7025 28.5847 49.6518 28.2223 49.5843 27.8622C49.5026 27.4261 49.3862 27.0001 49.2495 26.58C48.9629 25.7005 48.5868 24.8617 48.159 24.0478C47.8307 23.4231 47.4727 22.8172 47.0845 22.23C46.8841 21.9269 46.68 21.6216 46.6229 21.2458C46.5927 21.047 46.5587 20.8483 46.6201 20.6463C46.6886 20.4215 46.868 20.2861 47.0939 20.279C47.2661 20.2738 47.4165 20.3325 47.5684 20.4007C47.6023 20.416 47.6434 20.4506 47.6765 20.423C47.7058 20.3984 47.6816 20.3524 47.6791 20.3154C47.6727 20.2218 47.6192 20.1401 47.6191 20.0456C47.6525 20.0589 47.6679 20.0915 47.6883 20.1178C48.0132 20.5351 48.3338 20.9567 48.6283 21.3975C49.0521 22.0317 49.4045 22.7082 49.7034 23.415C50.1431 24.455 50.4895 25.5267 50.7231 26.6364C50.8843 27.4018 50.9929 28.1752 51.0393 28.958C51.0685 29.4512 51.0817 29.944 51.062 30.4384C51.0467 30.8236 51.0388 31.2097 50.9873 31.5911C50.9246 32.0567 50.8597 32.5218 50.7659 32.9829C50.6116 33.7431 50.4082 34.4877 50.1482 35.2152C49.9186 35.8579 49.6346 36.4753 49.315 37.0751C48.8255 37.9937 48.2548 38.8543 47.5978 39.6529C47.2926 40.0239 46.9691 40.377 46.625 40.7104C46.3802 40.9476 46.1376 41.1876 45.8748 41.4027C45.4304 41.7665 44.9716 42.1091 44.4918 42.4225C43.8251 42.8581 43.1294 43.234 42.4041 43.5516C41.8071 43.8129 41.1946 44.028 40.5685 44.2019C39.8243 44.4086 39.0684 44.5506 38.3016 44.6266C37.9198 44.6644 37.5369 44.6842 37.1529 44.691C36.6888 44.6992 36.2258 44.6826 35.7631 44.6508C35.74 44.6492 35.7171 44.6448 35.694 44.6418C35.5575 44.5663 35.4045 44.5456 35.2571 44.5217C34.9399 44.4705 34.6312 44.3796 34.3157 44.3225C34.1041 44.2842 33.8935 44.2412 33.683 44.1968C33.4543 44.1485 33.2386 44.062 33.0243 43.973C32.4353 43.7288 31.8637 43.4463 31.3293 43.0899C30.9722 42.8517 30.6224 42.6006 30.3128 42.2976C30.0891 42.0789 29.8803 41.8437 29.6647 41.6159C29.3118 41.243 28.9652 40.8615 28.5162 40.6077C28.2515 40.4581 27.9811 40.3189 27.7146 40.1727C27.2881 39.9388 26.8944 39.6522 26.5048 39.3594C26.2038 39.1332 25.9181 38.8875 25.6571 38.613C25.3817 38.3237 25.1333 38.0093 24.8884 37.6922C24.8379 37.6269 24.775 37.57 24.7585 37.476C24.8313 37.5554 24.9075 37.6319 24.976 37.7151C25.052 37.8074 25.1429 37.8816 25.2295 37.9617C25.6381 38.3391 26.0888 38.6554 26.5701 38.9209C26.9797 39.1471 27.4231 39.2937 27.8617 39.4481C28.1156 39.5374 28.3816 39.5754 28.643 39.6328C28.8495 39.6781 29.0568 39.721 29.2562 39.7951C29.2817 39.8266 29.2674 39.8766 29.3028 39.9035C29.2774 40.0474 29.3099 40.1814 29.3582 40.316C29.3957 40.4204 29.448 40.5149 29.5074 40.6054C29.6868 40.878 30.0328 41.0719 30.3417 40.8412L30.3422 40.8409ZM46.2569 37.136C46.0504 37.0721 45.8675 37.1407 45.7085 37.2665C45.242 37.6359 45.0478 38.1462 45.0321 38.7399C45.0292 38.8485 45.0173 38.9634 45.0822 39.0628C45.1281 39.2299 45.1583 39.3999 45.2405 39.5572C45.4412 39.9409 45.8412 40.0162 46.1628 39.8486C46.6136 39.6137 46.8066 39.1843 46.8966 38.6984C46.9499 38.4106 46.9296 38.1184 46.8801 37.8302C46.823 37.4976 46.6031 37.1634 46.2571 37.1362L46.2569 37.136Z" fill="#8B5028"/>
<path d="M23.178 29.5407C23.1094 30.054 23.0229 30.5655 22.9951 31.0837C22.9789 31.3843 22.9546 31.6852 22.9636 31.9871C22.9651 32.0351 22.9758 32.0911 22.9351 32.1329C22.9016 31.7653 22.8894 31.3959 22.9222 31.0292C22.9588 30.6198 22.9354 30.2099 22.9626 29.8006C22.9952 29.3079 23.0629 28.8202 23.1379 28.3336C23.2034 27.9087 23.2844 27.4861 23.3665 27.0641C23.5677 26.0301 23.9079 25.0512 24.4335 24.1426C24.6221 23.8167 24.7789 23.4705 24.9422 23.1294C25.0692 22.8642 25.0253 22.6242 24.8307 22.4025C24.6536 22.2008 24.5929 21.9434 24.5755 21.6796C24.539 21.1308 24.7802 20.6962 25.1338 20.3201C25.5396 19.8883 26.0474 19.6435 26.6016 19.4863C26.8838 19.4063 27.1689 19.3496 27.4601 19.3242C27.4829 19.3588 27.5195 19.3508 27.5511 19.3538C27.6565 19.3637 27.7623 19.3654 27.8679 19.3697C28.1813 19.3825 28.4646 19.2869 28.7307 19.1324C28.9996 18.9762 29.2088 18.7565 29.2794 18.4339C29.3365 18.1736 29.3351 17.9094 29.2761 17.6466C29.2182 17.3895 29.1603 17.1328 29.144 16.8669C29.1378 16.7645 29.1816 16.6633 29.1429 16.5625C29.2461 16.332 29.4052 16.1435 29.5745 15.9658C29.9029 15.6207 30.2687 15.3272 30.7008 15.1312C30.7126 15.1258 30.7258 15.1244 30.7384 15.121C30.7746 15.1246 30.8103 15.1243 30.847 15.1213C31.007 15.1083 31.1557 15.0456 31.3109 15.0126C31.7771 14.9132 32.25 14.8982 32.7206 14.9316C33.1662 14.9631 33.6127 14.9977 34.0529 15.0969C34.4688 15.1905 34.8693 15.325 35.2557 15.505C35.8348 15.7747 36.3953 16.0899 37.0127 16.264C37.3303 16.3534 37.6426 16.4666 37.9801 16.4551C38.2074 16.4473 38.4177 16.4105 38.5921 16.2397C38.6911 16.1428 38.7336 16.018 38.7877 15.897C38.8458 15.7675 38.9351 15.6729 39.0658 15.6197C39.2233 15.5555 39.3858 15.5457 39.5528 15.5474C39.9484 15.5514 40.3374 15.6084 40.7255 15.6822C40.786 15.6937 40.8456 15.7388 40.9118 15.7035C41.2444 15.8133 41.5685 15.9488 41.8811 16.1063C42.4388 16.3873 43.0204 16.6101 43.5789 16.888C44.2784 17.2362 44.9443 17.6422 45.575 18.1106C45.5904 18.1221 45.6018 18.1395 45.6151 18.1541C45.5637 18.1831 45.5203 18.149 45.4919 18.1196C45.3376 17.9615 45.136 17.8962 44.9451 17.8111C44.6529 17.6807 44.3581 17.5569 44.0639 17.4315C44.0369 17.42 44.0066 17.4165 43.9779 17.4091L43.9788 17.4097C43.9734 17.3892 43.9555 17.3873 43.94 17.3816C43.9183 17.3527 43.8871 17.3436 43.855 17.3324C43.7298 17.2889 43.6052 17.2431 43.4808 17.1972C43.1654 17.0809 42.8399 17.0046 42.5103 16.9524C42.1757 16.8991 41.8378 16.8916 41.5006 16.9325C41.0885 16.9824 40.6935 17.0924 40.3388 17.3228C40.1142 17.4688 39.9214 17.6604 39.701 17.8142C39.4813 17.9676 39.2495 18.0903 38.9944 18.1572C38.5199 18.2817 38.0415 18.2637 37.5678 18.1544C37.1315 18.0538 36.724 17.8719 36.348 17.6211C36.0803 17.4424 35.8182 17.2547 35.5583 17.0641C35.1593 16.7714 34.7163 16.6536 34.2315 16.6762C33.7234 16.7 33.2456 16.8389 32.7939 17.0749C32.2916 17.3375 31.9257 17.7533 31.6108 18.2255C31.3959 18.5478 31.2124 18.8913 30.9871 19.2064C30.7861 19.4872 30.5555 19.7324 30.2683 19.9222C29.9387 20.14 29.5729 20.215 29.1939 20.2459C28.714 20.285 28.2316 20.2831 27.752 20.331C27.4256 20.3638 27.1026 20.4154 26.7875 20.5138C26.4599 20.616 26.2065 20.8367 25.9496 21.0564C25.6351 21.3251 25.5713 21.8076 25.731 22.1466C25.924 22.5562 25.8936 22.9433 25.6717 23.3234C25.5048 23.6092 25.3239 23.8867 25.1642 24.1767C24.9636 24.5412 24.8171 24.9333 24.653 25.3165C24.5442 25.5706 24.4635 25.8421 24.3257 26.0778C23.9789 26.6707 23.7406 27.3075 23.5442 27.965C23.4466 28.2921 23.3624 28.6232 23.2969 28.9581C23.2588 29.1524 23.1935 29.341 23.1782 29.5402L23.178 29.5407Z" fill="#FABF4C"/>
<path d="M40.9116 15.704C40.8454 15.7395 40.7856 15.6943 40.7253 15.6827C40.3374 15.6088 39.9482 15.5519 39.5526 15.5479C39.3857 15.5462 39.2231 15.556 39.0656 15.6202C38.935 15.6735 38.8456 15.7679 38.7875 15.8976C38.7332 16.0184 38.6909 16.1433 38.5919 16.2402C38.4175 16.411 38.2072 16.4477 37.9798 16.4556C37.6423 16.4673 37.3301 16.3541 37.0125 16.2646C36.395 16.0906 35.8346 15.7752 35.2555 15.5055C34.8691 15.3256 34.4686 15.191 34.0527 15.0974C33.6123 14.9984 33.1659 14.9637 32.7204 14.9321C32.2497 14.8989 31.7769 14.9138 31.3107 15.0131C31.1555 15.0462 31.007 15.1088 30.8468 15.1218C30.8101 15.1248 30.7744 15.1252 30.7382 15.1215C31.1144 14.9275 31.5169 14.8205 31.9262 14.7378C32.459 14.6302 32.9972 14.6028 33.5394 14.613C34.7432 14.6354 35.8497 15.0022 36.8942 15.6034C37.1402 15.745 37.3896 15.8808 37.6599 15.9725C37.9106 16.0574 38.2026 15.9365 38.2684 15.6179C38.2902 15.5126 38.3457 15.4544 38.4409 15.4137C38.8533 15.2372 39.2776 15.1889 39.718 15.2568C40.0016 15.3004 40.2503 15.4458 40.5182 15.5346C40.6538 15.5795 40.7883 15.6285 40.9118 15.704L40.9116 15.704Z" fill="#EEA942"/>
<path d="M35.607 49.4656C35.672 49.1609 35.7945 48.8178 36.1327 48.6289C36.3842 48.4883 36.6566 48.435 36.9406 48.5506C37.1547 48.6379 37.339 48.7603 37.4577 48.9703C37.5103 49.063 37.47 49.1745 37.375 49.2238C37.3078 49.2587 37.2396 49.2695 37.1641 49.2633C36.7832 49.2314 36.4703 49.3824 36.2097 49.6609C36.1763 49.6966 36.1425 49.7372 36.1174 49.7784C36.0284 49.9248 35.8609 49.9221 35.7372 49.8646C35.6491 49.8237 35.5875 49.6685 35.6068 49.4654L35.607 49.4656Z" fill="#723B22"/>
<path d="M29.5723 47.2306C29.2923 47.1911 29.0604 47.2789 28.8414 47.4305C28.6557 47.5589 28.5455 47.5605 28.4122 47.3966C28.3615 47.3342 28.3412 47.2554 28.3725 47.1745C28.4851 46.8835 28.6608 46.6474 28.9419 46.5157C29.1199 46.4323 29.3089 46.4207 29.5003 46.467C29.8222 46.5449 30.0203 46.7678 30.1485 47.0684C30.1709 47.1212 30.1915 47.1852 30.1363 47.2412C30.0639 47.3147 29.9798 47.3466 29.8835 47.3151C29.7765 47.2799 29.6759 47.2225 29.5721 47.2306L29.5723 47.2306Z" fill="#723B22"/>
<path d="M29.1429 16.5628C29.1818 16.6636 29.1378 16.7648 29.144 16.8673C29.1602 17.1333 29.2182 17.3898 29.2761 17.647C29.3351 17.9098 29.3364 18.174 29.2794 18.4342C29.2088 18.7569 28.9996 18.9765 28.7307 19.1327C28.4646 19.2871 28.1813 19.3826 27.8679 19.37C27.7623 19.3658 27.6565 19.3641 27.5511 19.3542C27.5193 19.3511 27.4827 19.3592 27.4601 19.3245C27.5412 19.2837 27.6302 19.2703 27.7166 19.2494C27.9655 19.1891 28.2094 19.1064 28.4411 19.0009C28.8762 18.8029 29.1 18.4108 29.0283 17.8607C29.0098 17.7183 28.9748 17.5781 28.9536 17.436C28.9067 17.12 28.986 16.8321 29.1431 16.563L29.1429 16.5628Z" fill="#EEA942"/>
<path d="M30.2405 46.4217C30.2438 46.4249 30.2471 46.4279 30.2503 46.4311C30.248 46.433 30.2458 46.4351 30.2435 46.437C30.2413 46.433 30.2391 46.4289 30.2367 46.4249L30.2403 46.4219L30.2405 46.4217Z" fill="#FEFEFE"/>
<path d="M37.3599 48.3235C37.3633 48.3266 37.3667 48.3296 37.3702 48.3327C37.3679 48.3346 37.3656 48.3368 37.3634 48.3387C37.3612 48.3345 37.3589 48.3305 37.3569 48.3263L37.3599 48.3235Z" fill="#FEFEFE"/>
<path d="M23.1776 29.5411C23.1929 29.3419 23.2582 29.1533 23.2963 28.959C23.3619 28.6241 23.446 28.293 23.5436 27.9659C23.74 27.3082 23.9785 26.6714 24.3251 26.0787C24.4629 25.843 24.5437 25.5715 24.6524 25.3174C24.8163 24.9344 24.9628 24.5421 25.1636 24.1776C25.3233 23.8876 25.5042 23.6101 25.6711 23.3243C25.8929 22.9442 25.9233 22.5571 25.7304 22.1475C25.5707 21.8085 25.6345 21.326 25.949 21.0573C26.2061 20.8376 26.4593 20.6169 26.7869 20.5147C27.1022 20.4163 27.425 20.3647 27.7514 20.3319C28.231 20.2838 28.7134 20.2859 29.1933 20.2468C29.5725 20.2158 29.9381 20.1407 30.2677 19.923C30.5549 19.7333 30.7855 19.4881 30.9864 19.2072C31.2118 18.8922 31.3954 18.5487 31.6102 18.2264C31.9251 17.7542 32.291 17.3382 32.7933 17.0758C33.245 16.8398 33.7228 16.701 34.2309 16.6771C34.7155 16.6545 35.1586 16.7723 35.5577 17.065C35.8176 17.2556 36.0797 17.4433 36.3473 17.622C36.7232 17.8728 37.1307 18.0547 37.5672 18.1553C38.0409 18.2646 38.5191 18.2826 38.9938 18.1581C39.249 18.0912 39.4807 17.9684 39.7004 17.8151C39.9208 17.6612 40.1137 17.4697 40.3382 17.3237C40.6929 17.0933 41.0879 16.9833 41.5 16.9334C41.8372 16.8927 42.1751 16.9002 42.5097 16.9533C42.8393 17.0057 43.1647 17.0819 43.4802 17.1981C43.6046 17.244 43.7291 17.2897 43.8544 17.3333C43.8864 17.3444 43.9177 17.3536 43.9394 17.3825C43.9444 17.4036 43.9607 17.408 43.9782 17.4104L43.9773 17.4098C44.0899 17.4939 44.2007 17.5808 44.3158 17.6613C44.385 17.7099 44.4459 17.767 44.5035 17.8285C44.6581 17.9934 44.5789 18.2997 44.3613 18.3468C44.0535 18.4134 43.8741 18.6316 43.747 18.9001C43.63 19.1472 43.5626 19.4174 43.5464 19.6922C43.5004 20.4654 43.7116 21.1539 44.2204 21.7305C44.4929 22.0393 44.8302 22.246 45.2209 22.3544C45.31 22.3792 45.4023 22.3944 45.4941 22.4058C45.5712 22.4153 45.6459 22.4428 45.6839 22.5053C45.7564 22.6242 45.8673 22.7028 45.9502 22.8092C46.0759 22.9701 46.1738 23.15 46.2749 23.3273C46.6136 23.9219 46.8853 24.5498 47.1107 25.1985C47.2893 25.7133 47.4416 26.2375 47.5164 26.7807C47.5676 27.1538 47.5813 27.5304 47.5892 27.9075C47.5997 28.409 47.585 28.9088 47.5526 29.4094C47.5404 29.598 47.5376 29.7883 47.5113 29.9747C47.4595 30.3406 47.3901 30.7038 47.3338 31.0692C47.2382 31.6889 46.9705 32.2331 46.6599 32.7605C46.5916 32.8765 46.5106 32.9399 46.3742 32.9612C46.052 33.0116 45.8144 33.2136 45.6184 33.4724C45.3824 33.7841 45.2573 34.1476 45.1634 34.5257C45.0498 34.9822 45.051 35.4534 44.9933 35.9169C44.9528 36.2411 44.8868 36.5591 44.745 36.8541C44.5021 37.3599 44.1903 37.8118 43.7926 38.2025C43.4375 38.5517 43.0628 38.8768 42.6754 39.184C41.9467 39.7618 41.1632 40.25 40.3329 40.6563C39.6561 40.9875 38.958 41.2597 38.2377 41.4704C37.6762 41.6346 37.1067 41.7573 36.5288 41.8432C36.1429 41.9005 35.7556 41.9386 35.3672 41.9655C34.9954 41.9912 34.6265 41.9515 34.2597 41.8845C34.0803 41.8519 33.8979 41.8414 33.7178 41.8073C33.1902 41.7075 32.6835 41.5485 32.2091 41.2835C31.808 41.0596 31.4791 40.7519 31.1925 40.388C30.9932 40.135 30.8029 39.8741 30.5744 39.6459C30.2983 39.3701 29.9701 39.1877 29.6185 39.0471C29.0719 38.8285 28.5204 38.6234 27.9584 38.4507C27.6574 38.3582 27.3523 38.2788 27.0581 38.1639C26.4418 37.923 25.8703 37.6021 25.3826 37.1352C25.1929 36.9535 25.0536 36.7331 24.9187 36.5076C24.5446 35.8825 24.24 35.2224 23.9971 34.5323C23.6927 33.6673 23.4894 32.7769 23.3994 31.8597C23.3605 31.4644 23.2956 31.0729 23.2474 30.6791C23.2049 30.3331 23.1698 29.985 23.207 29.6345C23.2106 29.602 23.2353 29.5562 23.1781 29.5413L23.1776 29.5411ZM40.8998 30.3856C40.8978 30.4262 40.9165 30.4485 40.9552 30.4535C40.9748 30.4563 40.9921 30.461 41.009 30.4754C41.1851 30.6251 41.3743 30.7521 41.5859 30.8438C41.905 30.9822 42.2371 31.0787 42.579 31.1107C42.9794 31.1482 43.38 31.1278 43.7758 31.0262C44.2059 30.9158 44.5774 30.7087 44.8779 30.3713C45.013 30.2196 45.0851 30.0319 45.1212 29.8308C45.1941 29.4242 45.0122 29.1038 44.7732 28.817C44.5744 28.5783 44.3081 28.4213 44.0313 28.3C43.7108 28.1596 43.3701 28.0868 43.0227 28.0515C42.7895 28.0279 42.5557 28.0431 42.3222 28.0342C42.6375 27.7215 42.8781 27.3572 43.0403 26.9359C43.1551 26.6374 43.2147 26.3247 43.2481 26.0099C43.2738 25.767 43.2822 25.5182 43.2553 25.273C43.234 25.0768 43.2182 24.8787 43.1573 24.6894C43.1314 24.6223 43.123 24.5511 43.1142 24.4802C43.0093 23.6375 42.6741 22.9101 42.0971 22.3055C41.6098 21.795 41.0115 21.559 40.3268 21.6033C39.6933 21.6443 39.1634 21.9367 38.7547 22.4425C38.3617 22.9285 38.1609 23.5089 38.0622 24.1239C38.007 24.4681 37.981 24.8187 37.9956 25.1716C38.0053 25.4054 38.0403 25.6322 38.0925 25.8577C38.1016 25.8971 38.0979 25.9649 38.1732 25.9267C38.2994 26.4727 38.5177 26.9739 38.8487 27.4204C38.8445 27.4539 38.8625 27.4781 38.8772 27.5057C38.9335 27.6127 39.024 27.6932 39.0848 27.7951C39.2076 28.0008 39.381 28.1437 39.5826 28.2572C39.9523 28.4654 40.3491 28.5724 40.7662 28.6075C40.7588 28.654 40.7176 28.6704 40.6898 28.6985C40.6115 28.778 40.5387 28.8616 40.4903 28.9654C40.2954 29.384 40.4071 29.7596 40.642 30.1163C40.6704 30.1594 40.6948 30.2145 40.7548 30.2258L40.7545 30.2255C40.7551 30.2756 40.7794 30.3057 40.8265 30.3161L40.8262 30.3158C40.8236 30.3699 40.8568 30.3835 40.8999 30.386L40.8996 30.386L40.8998 30.3856ZM30.8978 20.9395L30.8794 20.916C30.8538 20.8953 30.8253 20.8775 30.8033 20.8534C30.598 20.6294 30.3629 20.4807 30.0507 20.4755C29.8698 20.4724 29.7295 20.5462 29.6039 20.66C29.4196 20.8269 29.3316 21.0562 29.2627 21.291C29.1977 21.5124 29.1734 21.7456 29.0809 21.9599C29.0616 22.0045 29.061 22.0638 29.1231 22.0906C29.1143 22.1543 29.167 22.2043 29.1997 22.2064C29.2694 22.211 29.3467 22.211 29.4061 22.1456C29.573 21.962 29.7506 21.7916 29.9832 21.6984C30.003 21.6995 30.0249 21.7069 30.0422 21.7007C30.4025 21.5733 30.7503 21.6518 31.0974 21.7636C31.1642 21.7852 31.2352 21.7978 31.2897 21.7298C31.3449 21.6609 31.3835 21.5874 31.3432 21.4947C31.316 21.4321 31.295 21.366 31.2617 21.3074C31.1728 21.1505 31.0833 20.9924 30.8967 20.9383L30.8979 20.9395L30.8978 20.9395ZM38.6299 20.8023C38.6573 20.911 38.733 20.9656 38.8324 20.9873C38.933 21.0093 39.0297 20.9757 39.1252 20.9498C39.2934 20.9041 39.4636 20.8715 39.6354 20.9057C39.8368 20.9455 40.0336 20.999 40.2078 21.1253C40.2988 21.1912 40.4071 21.2344 40.5116 21.2773C40.6321 21.3267 40.7036 21.2928 40.7262 21.1891C40.7588 21.0926 40.7222 21.0084 40.6826 20.9246C40.7169 20.852 40.6715 20.7933 40.6459 20.735C40.5871 20.6009 40.5229 20.4699 40.4411 20.3476C40.2247 20.0239 39.9668 19.7592 39.5927 19.6366C39.2631 19.5286 38.934 19.62 38.755 19.901C38.6126 20.1246 38.5652 20.3815 38.5733 20.648C38.5749 20.7032 38.5645 20.769 38.6295 20.8021L38.6299 20.8023ZM33.8639 19.0114C33.9512 19.1316 34.0623 19.2207 34.1944 19.2825C34.4738 19.4131 34.7761 19.4463 35.0688 19.4135C35.5349 19.3611 35.9177 19.1336 36.1474 18.6852C36.2594 18.4666 36.2847 18.2386 36.2149 17.9992C36.1317 17.7138 35.9422 17.5281 35.6997 17.3879C35.3903 17.2092 35.0615 17.1613 34.7151 17.2256C34.5141 17.2346 34.3144 17.2474 34.1199 17.31C33.8426 17.3997 33.5965 17.5334 33.4125 17.777C33.1887 18.0735 33.1838 18.4239 33.4261 18.7029C33.5479 18.8431 33.7003 18.9354 33.8637 19.0113L33.8639 19.0114ZM27.3548 35.0096C27.348 35.201 27.385 35.3833 27.4634 35.5567C27.6174 35.8977 27.9714 36.0417 28.28 35.8928C28.4136 35.8283 28.4926 35.7127 28.566 35.5895C28.6265 35.5791 28.6367 35.5226 28.6565 35.4782C28.8119 35.127 28.7156 34.577 28.4249 34.3205C28.3082 34.2176 28.177 34.1311 28.0273 34.1264C27.4854 34.1094 27.267 34.5983 27.3548 35.0094L27.3548 35.0096ZM35.2074 29.2789C35.2119 29.3088 35.2335 29.3132 35.2575 29.3194C35.3996 29.3559 35.5446 29.371 35.6899 29.3837C36.2084 29.4293 36.6553 29.2536 37.0345 28.8953C37.183 28.7551 37.3279 28.6002 37.3194 28.363C37.314 28.2109 37.2958 28.0602 37.239 27.9202C37.2002 27.8242 37.155 27.724 37.0444 27.6886C36.8831 27.5431 36.7095 27.4219 36.5002 27.3588C36.2474 27.2828 35.9861 27.2331 35.7451 27.1198C35.5053 27.0071 35.2453 26.9329 35.0461 26.7386C35.0081 26.7016 34.9614 26.7067 34.9174 26.7367C34.8343 26.7934 34.8318 26.9149 34.92 26.9917C34.9746 27.0392 35.0392 27.0741 35.1094 27.1214C34.9416 27.1945 34.7728 27.2388 34.6026 27.2788C34.4695 27.3101 34.3383 27.3452 34.2256 27.4315C33.9813 27.6181 33.8939 28.019 34.0286 28.3504C34.2478 28.8896 34.6756 29.159 35.2075 29.2789L35.2074 29.2789ZM33.6205 35.3838C33.6195 35.4053 33.634 35.4116 33.6503 35.4162C33.8719 35.7043 34.1132 35.973 34.3808 36.2158C34.3747 36.2537 34.4025 36.2687 34.4244 36.29C34.6265 36.4862 34.8508 36.6514 35.0887 36.7967C35.5518 37.08 36.0546 37.214 36.5894 37.1808C37.0516 37.1521 37.4632 36.9638 37.8295 36.6728C38.3616 36.2501 38.7243 35.6925 39.0036 35.0702C39.3287 34.3456 39.5035 33.5766 39.6089 32.7904C39.6499 32.4847 39.6741 32.1757 39.6844 31.8652C39.6955 31.5327 39.7043 31.2011 39.6913 30.8691C39.6795 30.5615 39.6645 30.2536 39.6166 29.9495C39.5981 29.832 39.5554 29.7219 39.4194 29.6969C39.391 29.6333 39.3579 29.5737 39.2948 29.5398C39.2818 29.3875 39.1685 29.3364 39.009 29.4118C38.5388 29.6341 38.0493 29.7906 37.5382 29.8712C37.0649 29.9459 36.5898 30.0006 36.1116 30.0353C35.8529 30.054 35.5933 30.0458 35.3336 30.0876C35.0908 30.1265 34.8388 30.089 34.5914 30.0644C34.46 30.0514 34.3269 30.0447 34.195 30.0495C33.9778 30.0576 33.7582 30.0443 33.5521 29.9919C33.0944 29.8753 32.6271 29.8003 32.1758 29.6556C32.1338 29.6421 32.087 29.64 32.0578 29.6842C31.9615 29.8295 31.8917 29.983 31.8772 30.1647C31.85 30.5054 31.8895 30.8422 31.9229 31.1785C31.9563 31.513 32.0383 31.839 32.1264 32.1639C32.2141 32.4874 32.277 32.8185 32.3882 33.1352C32.579 33.6782 32.7905 34.2115 33.0758 34.7107C33.2 34.9279 33.3523 35.1221 33.5102 35.3125C33.5382 35.3462 33.5689 35.3896 33.6235 35.3853L33.6206 35.3839L33.6205 35.3838ZM32.9326 24.7175C32.9251 24.6876 32.9014 24.6612 32.9149 24.6269C32.9293 24.5774 32.9132 24.5307 32.8994 24.4855C32.7501 23.9975 32.5056 23.5678 32.146 23.2161C31.6618 22.7425 31.0998 22.4795 30.4166 22.5523C29.8409 22.6134 29.3605 22.8691 28.9576 23.2925C28.6994 23.5638 28.504 23.8777 28.3493 24.2231C28.1988 24.5589 28.1003 24.9098 28.0489 25.2734C28.0037 25.593 28.0006 25.9166 28.042 26.2375C28.0525 26.3184 28.0228 26.4207 28.1127 26.48C28.1177 26.4994 28.1242 26.5186 28.1273 26.5384C28.1548 26.7035 28.1761 26.8698 28.2185 27.032C28.2142 27.0407 28.2048 27.0506 28.2065 27.0576C28.2638 27.2906 28.3177 27.5249 28.4043 27.7486C28.5607 28.1532 28.8026 28.4899 29.1462 28.7448C29.0927 28.7393 29.0391 28.7335 28.9855 28.728C28.9636 28.7067 28.9467 28.6701 28.9081 28.7014L28.8693 28.6975C28.843 28.661 28.8029 28.6709 28.7681 28.6669C28.4485 28.6311 28.1292 28.6288 27.8096 28.6727C27.2395 28.7511 26.7305 28.9502 26.3761 29.4516C26.1925 29.7112 26.1046 29.9965 26.191 30.3198C26.1974 30.5997 26.3028 30.8453 26.4899 31.0336C26.768 31.3131 27.1116 31.4758 27.4935 31.5572C27.7471 31.6113 28.0022 31.6254 28.2577 31.6153C28.5332 31.6047 28.8034 31.5501 29.0689 31.4664C29.4801 31.3367 29.8537 31.1433 30.156 30.8198C30.2869 30.68 30.3769 30.5084 30.4527 30.3349C30.4994 30.228 30.4948 30.0978 30.4999 29.9741C30.5082 29.7716 30.4426 29.606 30.3414 29.441C30.2884 29.3546 30.187 29.3104 30.1636 29.2031C30.2727 29.2136 30.3821 29.2218 30.4911 29.2347C30.7835 29.2692 31.0656 29.2195 31.3395 29.1184C31.8157 28.9426 32.1958 28.6318 32.4993 28.2155C32.7215 27.9107 32.8864 27.5729 32.9915 27.2096C33.089 26.8728 33.1559 26.5287 33.1598 26.1709C33.1624 25.9343 33.1648 25.6987 33.139 25.4642C33.1125 25.2253 33.0611 24.9908 32.9905 24.7616C32.9842 24.7409 32.997 24.6672 32.9326 24.7171L32.9326 24.7175ZM26.073 33.5097C26.0757 33.5115 26.0783 33.5135 26.0808 33.5153C26.0781 33.5135 26.0755 33.5115 26.0729 33.5097C26.0687 33.4934 26.0678 33.4751 26.0598 33.4612C25.8296 33.0544 25.6546 32.6195 25.4619 32.1938C25.3519 31.9508 25.2903 31.6884 25.2007 31.437C25.1132 31.1915 25.0713 30.9332 25.0153 30.6792C24.9323 30.3035 24.9781 29.9269 25.0207 29.5513C25.0405 29.3768 25.0932 29.2113 25.1661 29.0517C25.2777 28.8075 25.4589 28.6224 25.6347 28.43C26.0202 28.0081 26.5005 27.825 27.0491 27.809C27.1313 27.8066 27.1551 27.7826 27.1322 27.6993C27.0622 27.445 26.994 27.1905 26.9467 26.9299C26.8337 26.3076 26.7965 25.6868 26.9212 25.0602C27.0006 24.661 27.1254 24.2806 27.3032 23.918C27.3661 23.7894 27.429 23.6605 27.4949 23.5337C27.5174 23.4905 27.5056 23.4603 27.4745 23.4346C27.434 23.4011 27.4144 23.4368 27.398 23.4666C27.2992 23.6466 27.164 23.8009 27.06 23.9763C26.8444 24.3398 26.6889 24.7361 26.5056 25.1168C26.308 25.5274 26.2363 25.989 26.0981 26.4246C26.028 26.6457 25.9612 26.7611 25.7636 26.7767C25.4369 26.8021 25.1808 26.9759 24.9398 27.1753C24.6669 27.4014 24.4705 27.6957 24.3213 28.0221C24.192 28.305 24.1058 28.6028 24.0335 28.9069C23.9478 29.2669 23.9117 29.6316 23.9201 29.9994C23.9341 30.6189 24.1438 31.1633 24.5365 31.6333C24.7281 31.8626 24.9075 32.1026 25.096 32.3345C25.2286 32.4975 25.3521 32.668 25.496 32.822C25.5964 32.9297 25.6953 33.0399 25.7797 33.1654C25.8634 33.2896 25.9438 33.4241 26.0734 33.5096L26.073 33.5097ZM41.5473 36.3286C41.5427 36.3782 41.5368 36.4093 41.5374 36.44C41.5401 36.5834 41.5923 36.703 41.7124 36.7789C41.8243 36.8497 41.9381 36.8391 42.0508 36.7705C42.2265 36.6636 42.3289 36.3162 42.2391 36.1192C42.1151 35.8469 41.8249 35.8138 41.6463 36.0515C41.5809 36.1383 41.5433 36.2357 41.5472 36.3286L41.5473 36.3286Z" fill="#EEA942"/>
<path d="M47.1408 33.7386C47.1654 33.7692 47.1899 33.7995 47.2142 33.83C47.2708 33.9103 47.3236 33.9929 47.3524 34.089C47.4922 34.5547 47.4589 35.0134 47.2579 35.4475C47.0675 35.8588 46.7837 36.1596 46.2939 36.1321C46.0648 36.0895 45.9126 35.9412 45.7968 35.7427C45.7893 35.7346 45.7817 35.7266 45.7744 35.7184L45.7759 35.7195C45.6939 35.5025 45.6533 35.275 45.66 35.0448C45.6738 34.576 45.8167 34.1556 46.1474 33.8209C46.3345 33.6316 46.56 33.5493 46.8232 33.5789C46.9289 33.5907 47.0107 33.6574 47.1058 33.693L47.1052 33.6917C47.1017 33.7084 47.1113 33.7135 47.1244 33.7158L47.1229 33.7145C47.1287 33.7225 47.1346 33.7305 47.1405 33.7384L47.1408 33.7386Z" fill="#451611"/>
<path d="M44.8402 19.083C45.0222 19.1788 45.1431 19.3367 45.247 19.5122C45.3198 19.7134 45.387 19.9162 45.4244 20.1283C45.4524 20.287 45.4528 20.4472 45.4529 20.6081C45.453 20.8362 45.436 21.0585 45.3327 21.2676C45.1857 21.5651 44.8101 21.7301 44.5319 21.4995C44.5173 21.4874 44.4962 21.484 44.478 21.4765C44.3041 21.2947 44.1945 21.0743 44.1176 20.834C44.1182 20.8238 44.1217 20.8124 44.1188 20.8033C43.993 20.4151 43.9751 20.0232 44.0709 19.6247C44.1757 19.189 44.4423 18.9994 44.8399 19.0833L44.8402 19.083Z" fill="#451611"/>
<path d="M30.3425 40.8407C30.0336 41.0714 29.6874 40.8775 29.5082 40.6048C29.4488 40.5144 29.3964 40.4198 29.3589 40.3154C29.3106 40.1809 29.2782 40.0469 29.3036 39.903C29.323 39.7964 29.3059 39.6829 29.3739 39.5856C29.5298 39.3625 29.8253 39.3334 30.0606 39.5377C30.3401 39.7803 30.488 40.093 30.4761 40.478C30.4793 40.6179 30.409 40.7285 30.3425 40.8407Z" fill="#7B381B"/>
<path d="M46.2938 36.1324C46.7836 36.1598 47.0673 35.859 47.2578 35.4478C47.4588 35.0136 47.4921 34.5549 47.3523 34.0892C47.3235 33.9931 47.2706 33.9105 47.2141 33.8302C47.2189 33.7414 47.2611 33.7778 47.2948 33.8068C47.4715 33.9591 47.5787 34.1549 47.6394 34.3838C47.7975 34.9799 47.631 35.5023 47.2669 35.9534C47.0642 36.2042 46.7134 36.3227 46.3786 36.194C46.3469 36.1819 46.3044 36.1787 46.2939 36.1324L46.2938 36.1324Z" fill="#8B5028"/>
<path d="M41.1212 41.0995C41.1097 41.1878 41.1221 41.2763 41.1198 41.3648C41.1139 41.5856 40.922 41.7258 40.712 41.7181C40.507 41.7106 40.3609 41.6145 40.2918 41.4077C40.2918 41.3973 40.2929 41.3869 40.2916 41.3768C40.2579 41.1297 40.3972 40.8985 40.6229 40.827C40.8455 40.7563 41.0064 40.8444 41.1211 41.0995L41.1212 41.0995Z" fill="#7B381B"/>
<path d="M44.4786 21.4758C44.4966 21.4833 44.5179 21.4868 44.5325 21.4988C44.8107 21.7294 45.1861 21.5645 45.3332 21.2669C45.4365 21.0579 45.4535 20.8355 45.4535 20.6074C45.4534 20.4467 45.453 20.2863 45.425 20.1276C45.3876 19.9155 45.3203 19.7126 45.2476 19.5114C45.3403 19.5614 45.3709 19.6627 45.4141 19.747C45.6436 20.1955 45.755 20.6702 45.67 21.1795C45.6292 21.4245 45.5391 21.6413 45.3122 21.7664C45.0822 21.8932 44.7822 21.795 44.5936 21.6238C44.5482 21.5826 44.4846 21.5518 44.4787 21.4757L44.4786 21.4758Z" fill="#8B5028"/>
<path d="M30.4759 40.4782C30.4879 40.0932 30.34 39.7805 30.0604 39.5379C29.8252 39.3338 29.5297 39.3627 29.3738 39.5858C29.3058 39.6831 29.3229 39.7966 29.3034 39.9032C29.268 39.8762 29.2822 39.8264 29.2568 39.7948C29.2749 39.4735 29.3933 39.3113 29.6645 39.2693C29.8929 39.2339 30.0919 39.3092 30.2319 39.5063C30.3782 39.7125 30.4976 39.9338 30.5104 40.1987C30.515 40.2933 30.5186 40.3891 30.4761 40.4781L30.4759 40.4782Z" fill="#F6BC4A"/>
<path d="M44.8405 19.0823C44.4431 18.9987 44.1764 19.1881 44.0716 19.6238C43.9758 20.0222 43.9937 20.4142 44.1194 20.8024C44.1224 20.8115 44.1187 20.8228 44.1182 20.8331C44.0356 20.7673 44.0222 20.6628 43.9987 20.5715C43.8868 20.1361 43.9043 19.708 44.1055 19.3005C44.1777 19.154 44.2843 19.036 44.4361 18.9725C44.5832 18.9107 44.7149 18.9539 44.8381 19.0427C44.8532 19.0535 44.8612 19.0676 44.8405 19.0822L44.8405 19.0823Z" fill="#F6BC4A"/>
<path d="M47.1059 33.6933C47.0108 33.6576 46.929 33.5911 46.8232 33.5792C46.5601 33.5497 46.3346 33.6319 46.1475 33.8213C45.8167 34.156 45.6738 34.5763 45.6601 35.0451C45.6533 35.2753 45.6939 35.5029 45.776 35.7198C45.7102 35.6907 45.7091 35.6207 45.6934 35.5651C45.6097 35.2668 45.6121 34.968 45.6684 34.6616C45.7284 34.3356 45.844 34.0416 46.0571 33.7962C46.3291 33.4831 46.6264 33.4208 46.9896 33.5791C47.0394 33.6008 47.0941 33.6261 47.1059 33.6935L47.1059 33.6933Z" fill="#F6BC4A"/>
<path d="M41.1214 41.0996C41.0068 40.8445 40.8458 40.7565 40.6232 40.827C40.3975 40.8986 40.2584 41.1298 40.2919 41.3769C40.2933 41.387 40.2921 41.3974 40.2922 41.4077C40.2224 41.3698 40.212 41.2949 40.2176 41.2316C40.2341 41.0446 40.3057 40.8866 40.4629 40.7741C40.6713 40.6247 40.9852 40.699 41.0934 40.9306C41.1187 40.9846 41.1298 41.04 41.1214 41.0996Z" fill="#F6BC4A"/>
<path d="M47.1411 33.7391C47.1351 33.731 47.1291 33.7229 47.1232 33.7148C47.1309 33.7216 47.162 33.7097 47.1411 33.7391Z" fill="#F6BC4A"/>
<path d="M45.7744 35.7188C45.7821 35.727 45.7897 35.7351 45.7972 35.7433C45.7896 35.7351 45.7819 35.727 45.7744 35.7188Z" fill="#F6BC4A"/>
<path d="M47.1245 33.7164C47.1113 33.714 47.1014 33.7088 47.1051 33.6919C47.1116 33.7001 47.1181 33.7082 47.1245 33.7164Z" fill="#F6BC4A"/>
<path d="M46.2572 37.1359C46.6032 37.1633 46.823 37.4975 46.8803 37.8299C46.9298 38.1181 46.9501 38.4103 46.8968 38.6981C46.8067 39.184 46.6138 39.6134 46.163 39.8483C45.8414 40.0159 45.4414 39.9406 45.2407 39.5569C45.1585 39.3998 45.1283 39.2295 45.0824 39.0625C45.0899 38.9709 45.0664 38.8801 45.0694 38.7899C45.084 38.3408 45.1966 37.9231 45.467 37.563C45.6669 37.2969 45.9153 37.1221 46.2571 37.1357L46.2572 37.1359Z" fill="#451611"/>
<path d="M46.257 37.1359C45.9152 37.1223 45.6668 37.2971 45.4669 37.5632C45.1965 37.9235 45.0839 38.341 45.0693 38.7901C45.0663 38.8801 45.0899 38.9711 45.0823 39.0627C45.0174 38.9633 45.0293 38.8484 45.0322 38.7398C45.0479 38.1463 45.2423 37.636 45.7086 37.2664C45.8676 37.1404 46.0505 37.0718 46.257 37.1359Z" fill="#EEA942"/>
<path d="M43.9791 17.4103C43.9615 17.4079 43.9452 17.4035 43.9402 17.3823C43.9556 17.388 43.9735 17.39 43.9791 17.4103Z" fill="#B77C3B"/>
<path d="M26.0735 33.5099C25.9439 33.4246 25.8634 33.2899 25.7798 33.1657C25.6952 33.0402 25.5965 32.93 25.4961 32.8224C25.3522 32.6684 25.2287 32.4978 25.0961 32.3348C24.9076 32.1029 24.7282 31.8628 24.5366 31.6336C24.1439 31.1637 23.9342 30.6191 23.9202 29.9997C23.9118 29.6321 23.948 29.2673 24.0336 28.9072C24.106 28.6031 24.1923 28.3056 24.3214 28.0225C24.4706 27.6958 24.667 27.4016 24.9399 27.1757C25.1809 26.9761 25.4372 26.8025 25.7637 26.777C25.9612 26.7616 26.0283 26.646 26.0982 26.4249C26.2363 25.9893 26.3079 25.5279 26.5057 25.1172C26.6891 24.7365 26.8445 24.3401 27.0601 23.9766C27.1643 23.8011 27.2995 23.647 27.3981 23.467C27.4145 23.4371 27.4339 23.4014 27.4746 23.4349C27.5057 23.4606 27.5174 23.4909 27.495 23.534C27.4289 23.6609 27.3662 23.7898 27.3033 23.9183C27.1255 24.281 27.0007 24.6614 26.9212 25.0606C26.7964 25.6871 26.8336 26.3079 26.9468 26.9302C26.9941 27.1908 27.0623 27.4452 27.1323 27.6996C27.1552 27.7828 27.1314 27.8069 27.0492 27.8093C26.5006 27.8253 26.0203 28.0082 25.6348 28.4303C25.459 28.6227 25.2778 28.8078 25.1662 29.0521C25.0934 29.2116 25.0406 29.3772 25.0208 29.5517C24.9782 29.9271 24.9324 30.3039 25.0153 30.6795C25.0714 30.9335 25.1132 31.1918 25.2008 31.4374C25.2904 31.6888 25.352 31.9511 25.4619 32.1941C25.6547 32.6198 25.8297 33.0548 26.0599 33.4616C26.0679 33.4756 26.0687 33.4938 26.0729 33.51L26.0735 33.5099Z" fill="#FABF4C"/>
<path d="M42.3227 28.0342C42.5561 28.0431 42.79 28.0277 43.0231 28.0515C43.3705 28.0868 43.7111 28.1594 44.0318 28.3001C44.3086 28.4213 44.5749 28.5783 44.7737 28.817C45.0125 29.1039 45.1945 29.4243 45.1217 29.8309C45.0856 30.0321 45.0133 30.2196 44.8783 30.3714C44.5779 30.7088 44.2063 30.9159 43.7763 31.0262C43.3804 31.1278 42.9799 31.1483 42.5794 31.1108C42.2377 31.0788 41.9055 30.9821 41.5863 30.8438C41.3747 30.7522 41.1856 30.6251 41.0095 30.4755C40.9926 30.461 40.9752 30.4564 40.9554 30.4535C40.9554 30.4148 40.9382 30.3911 40.9001 30.3857L40.9004 30.3857C40.8859 30.3512 40.8664 30.3219 40.8267 30.3157L40.827 30.316C40.8254 30.2665 40.8016 30.2362 40.755 30.2254L40.7553 30.2257C40.7687 30.2028 40.7707 30.1853 40.7466 30.1643C40.6762 30.1029 40.6318 30.0112 40.6025 29.9324C40.5517 29.795 40.5147 29.651 40.5142 29.4913C40.5133 29.1554 40.6604 28.9077 40.8721 28.6818C40.9661 28.5816 41.0962 28.5285 41.1839 28.4207C41.2429 28.3876 41.3194 28.3841 41.3556 28.3122C41.3735 28.3164 41.3874 28.3113 41.3969 28.2945C41.4654 28.2663 41.5338 28.2379 41.6022 28.2097C41.6109 28.2054 41.6195 28.2013 41.6282 28.197L41.6299 28.1961C41.6529 28.1953 41.6776 28.2002 41.6984 28.1929C41.8941 28.1227 42.0978 28.0908 42.3003 28.0525L42.3234 28.0341L42.3228 28.0346L42.3227 28.0342ZM40.8412 29.2966C40.8028 29.5577 40.923 29.7649 41.1466 29.921C41.3576 30.0683 41.5963 30.0671 41.8286 30.0301C42.1821 29.9737 42.4767 29.795 42.7094 29.5065C42.9321 29.2303 43.0203 28.8165 42.706 28.5302C42.5129 28.3544 42.2829 28.2895 42.0379 28.3034C41.7142 28.3218 41.42 28.4348 41.1778 28.6704C41.0079 28.8356 40.8697 29.0184 40.8412 29.2966Z" fill="#F2956E"/>
<path d="M28.8694 28.6976C28.8824 28.6989 28.8952 28.7002 28.9082 28.7015C28.927 28.7325 28.9579 28.7251 28.9856 28.728C29.0392 28.7336 29.0927 28.7393 29.1463 28.7449C29.2641 28.7488 29.3691 28.8039 29.4802 28.8344C29.5868 28.8635 29.6865 28.9128 29.7829 28.9675C29.9125 29.0413 30.0283 29.1396 30.1636 29.2037C30.1871 29.3108 30.2885 29.3552 30.3414 29.4414C30.4426 29.6064 30.5083 29.772 30.5 29.9745C30.4949 30.0982 30.4994 30.2284 30.4528 30.3353C30.377 30.5088 30.287 30.6802 30.1561 30.8202C29.8536 31.1435 29.4802 31.3371 29.0689 31.4668C28.8033 31.5505 28.5333 31.6049 28.2577 31.6157C28.0023 31.6256 27.7471 31.6117 27.4936 31.5576C27.1117 31.4762 26.7679 31.3134 26.49 31.034C26.3028 30.8459 26.1974 30.6003 26.1911 30.3202C26.2135 29.997 26.3555 29.7261 26.5518 29.4874C26.7197 29.2836 26.9556 29.1676 27.1714 29.0278C27.2952 28.9475 27.44 28.9202 27.5751 28.8695C27.703 28.8216 27.8353 28.7785 27.9693 28.7576C28.2669 28.7108 28.5676 28.6893 28.8693 28.6979L28.8694 28.6976ZM27.7696 29.0637C27.663 29.0344 27.532 29.0621 27.4123 29.0985C27.2245 29.1556 27.044 29.2336 26.8822 29.3625C26.6298 29.5634 26.4296 29.7817 26.3832 30.1305C26.3566 30.3298 26.4208 30.4736 26.5365 30.6106C26.6267 30.7174 26.7518 30.7405 26.8787 30.7739C27.0625 30.8222 27.2417 30.8075 27.4164 30.7592C27.5864 30.7121 27.745 30.6293 27.8923 30.5244C28.1193 30.3626 28.3051 30.167 28.3888 29.8879C28.458 29.6566 28.4457 29.4369 28.2714 29.2521C28.1402 29.113 27.9681 29.0862 27.7698 29.0637L27.7696 29.0637Z" fill="#F2956E"/>
<path d="M41.6023 28.2089C41.5338 28.2371 41.4654 28.2655 41.3969 28.2937C41.3804 28.2928 41.3637 28.2911 41.3556 28.3114C41.3457 28.311 41.3351 28.3077 41.326 28.3102C40.993 28.4054 40.6603 28.4235 40.3171 28.356C39.9941 28.2923 39.7054 28.1603 39.4348 27.9753C39.2114 27.8224 39.0298 27.6216 38.8493 27.4199C38.5183 26.9734 38.3002 26.4722 38.1738 25.9261C38.1717 25.9022 38.1725 25.8777 38.1672 25.8546C38.1077 25.5969 38.0815 25.3321 38.0954 25.0713C38.1128 24.7435 38.134 24.4142 38.2171 24.0916C38.3558 23.5525 38.5904 23.0725 38.9707 22.6748C39.6524 21.9618 40.5738 21.7781 41.4376 22.2076C42.4849 22.7284 42.9488 23.6803 43.11 24.8254C43.1492 25.0768 43.1432 25.3301 43.1321 25.5824C43.1203 25.8465 43.0704 26.1057 43.0019 26.3606C42.8219 27.031 42.487 27.5931 41.9328 28.0001C41.8361 28.0713 41.7312 28.1306 41.6301 28.1954L41.6283 28.1962C41.6196 28.2005 41.6111 28.2047 41.6024 28.209L41.6023 28.2089ZM38.3509 25.2654L38.348 25.2662C38.3555 25.5986 38.4205 25.9202 38.5246 26.2334C38.7374 26.8728 39.0819 27.4139 39.6351 27.7909C40.0114 28.0474 40.4236 28.1785 40.8785 28.1231C41.4243 28.0565 41.8609 27.781 42.2082 27.3495C42.6715 26.7738 42.8644 26.0939 42.8907 25.3572C42.8965 25.1947 42.8897 25.0287 42.8571 24.8669C42.8444 24.685 42.8057 24.5079 42.7568 24.334C42.7107 24.1703 42.6783 23.9996 42.5774 23.8575C42.5801 23.8141 42.5613 23.778 42.5437 23.7406C42.3974 23.4286 42.2124 23.1449 41.9705 22.9036C41.5765 22.5106 41.1236 22.2519 40.5613 22.2432C40.3339 22.2398 40.1123 22.2717 39.9002 22.3587C39.1931 22.6492 38.7721 23.2104 38.5215 23.9316C38.4284 24.1946 38.3717 24.4665 38.3412 24.7444C38.3244 24.8969 38.3372 25.05 38.3409 25.2029C38.3369 25.2252 38.3281 25.2482 38.351 25.2658L38.3509 25.2654Z" fill="#21120C"/>
<path d="M32.9152 24.6273C32.9017 24.6616 32.9254 24.688 32.9329 24.7179C33.0606 25.1302 33.1061 25.5552 33.0893 25.9848C33.0726 26.412 32.989 26.8284 32.835 27.2268C32.6372 27.7385 32.3427 28.1802 31.9213 28.5196C31.4317 28.9139 30.882 29.0951 30.2554 29.0068C30.0021 28.9712 29.7627 28.9039 29.538 28.7829C29.0094 28.4982 28.6485 28.0516 28.3958 27.5008C28.3259 27.3485 28.2868 27.1846 28.2188 27.0321C28.1764 26.8699 28.155 26.7036 28.1276 26.5384C28.1243 26.5187 28.1178 26.4994 28.113 26.48C28.1144 26.4561 28.1204 26.4312 28.1162 26.4083C28.0814 26.2116 28.0922 26.0122 28.0997 25.8155C28.113 25.4583 28.1795 25.1075 28.2958 24.7708C28.5516 24.0293 28.9757 23.4249 29.665 23.0583C30.2896 22.726 30.9312 22.7236 31.5689 23.0176C32.0767 23.2517 32.4341 23.6553 32.7009 24.1531C32.7831 24.3064 32.8361 24.473 32.9154 24.6272L32.9152 24.6273ZM32.6946 24.8427C32.6939 24.8292 32.6959 24.8146 32.6918 24.8023C32.4813 24.1581 32.1294 23.6277 31.5424 23.2936C31.2513 23.1279 30.9381 23.0324 30.6035 23.0559C30.0541 23.0942 29.5932 23.3339 29.2059 23.7366C28.7889 24.17 28.5403 24.6944 28.411 25.2856C28.3751 25.4334 28.3505 25.5828 28.3465 25.7356C28.3182 25.9235 28.3349 26.1115 28.3521 26.2987C28.4177 27.0202 28.6598 27.6631 29.1657 28.1771C29.5164 28.5335 29.9332 28.7518 30.4352 28.7735C30.7719 28.7881 31.089 28.7113 31.3817 28.5486C32.2399 28.0715 32.6511 27.2769 32.8182 26.3202C32.8715 26.0154 32.8608 25.7057 32.823 25.398C32.7995 25.2083 32.7559 25.0237 32.6948 24.8432L32.6946 24.8427Z" fill="#21120C"/>
<path d="M39.2946 29.5398C39.3578 29.5739 39.3909 29.6333 39.4193 29.6969C39.5074 30.3313 39.5339 30.9682 39.5069 31.6089C39.4919 31.9638 39.4569 32.3157 39.4045 32.6664C39.363 32.9445 39.3084 33.2198 39.2394 33.4916C39.1171 33.9727 38.9496 34.437 38.7346 34.8823C38.4848 35.3994 38.1736 35.8694 37.7496 36.2512C37.2538 36.6976 36.6832 36.9435 36.0196 36.9163C35.5923 36.8988 35.2059 36.7358 34.8356 36.5253C34.6759 36.4345 34.5355 36.3138 34.3808 36.2156C34.113 35.9728 33.8719 35.7041 33.6503 35.416C33.6472 35.3985 33.636 35.3889 33.6205 35.3836L33.6234 35.3851C33.6096 35.3617 33.5977 35.3371 33.5821 35.3152C33.3402 34.9721 33.1343 34.6068 32.9595 34.2228C32.3567 32.8974 32.1184 31.4904 32.0928 30.0364C32.0904 29.9003 32.1719 29.8345 32.2917 29.871C32.7683 30.0164 33.254 30.1183 33.7465 30.1824C34.5258 30.2839 35.3083 30.3113 36.0926 30.2723C36.7499 30.2397 37.4017 30.1594 38.0442 30.0076C38.4793 29.9048 38.8955 29.7469 39.2946 29.54L39.2946 29.5398ZM38.2484 32.8008C38.2387 32.7824 38.2247 32.7762 38.2057 32.7844C38.1939 32.7807 38.1823 32.7769 38.1706 32.773C37.9682 32.6575 37.7422 32.6243 37.5206 32.5851C37.2388 32.5353 36.9518 32.5372 36.668 32.5648C35.8311 32.6459 35.0793 32.9438 34.46 33.5486C34.245 33.7586 34.0518 33.9915 33.9538 34.2906C33.9169 34.4034 33.9648 34.5687 34.0588 34.6497C34.1798 34.8811 34.354 35.0675 34.5319 35.2506C34.7025 35.4405 34.8974 35.5998 35.1094 35.7362C35.5081 35.9929 35.9335 36.1332 36.4089 36.0446C36.8815 35.9564 37.2554 35.6955 37.5668 35.3284C37.91 34.9237 38.1363 34.4515 38.3017 33.9448C38.3791 33.7075 38.4491 33.4682 38.4865 33.2197C38.4985 33.1669 38.5024 33.1134 38.5207 33.0608C38.5468 32.9858 38.5425 32.9147 38.4473 32.8841C38.3792 32.8623 38.3146 32.8289 38.2484 32.8008Z" fill="#1F100B"/>
<path d="M34.381 36.2159C34.5359 36.3141 34.6761 36.4349 34.8358 36.5256C35.2061 36.7359 35.5925 36.8991 36.0199 36.9167C36.6835 36.9438 37.254 36.6979 37.7498 36.2515C38.1738 35.8697 38.485 35.3997 38.7348 34.8826C38.9498 34.4373 39.1173 33.9731 39.2396 33.4919C39.3087 33.2201 39.3633 32.9447 39.4047 32.6667C39.4569 32.316 39.4921 31.9643 39.5071 31.6092C39.534 30.9685 39.5076 30.3316 39.4195 29.6972C39.5555 29.7222 39.5983 29.8325 39.6167 29.9498C39.6645 30.2539 39.6795 30.5618 39.6914 30.8694C39.7043 31.2015 39.6955 31.533 39.6845 31.8655C39.6742 32.176 39.6498 32.4849 39.6089 32.7907C39.5036 33.5769 39.3288 34.3459 39.0037 35.0705C38.7244 35.6928 38.3617 36.2504 37.8296 36.6731C37.4633 36.9641 37.0517 37.1524 36.5895 37.1811C36.0547 37.2143 35.5518 37.0803 35.0888 36.797C34.8511 36.6515 34.6266 36.4865 34.4245 36.2903C34.4026 36.269 34.3748 36.254 34.3808 36.2161L34.381 36.2159Z" fill="#B77C3B"/>
<path d="M39.2948 29.54C38.8958 29.7469 38.4797 29.9048 38.0444 30.0076C37.4018 30.1594 36.7501 30.2397 36.0928 30.2723C35.3085 30.3113 34.5259 30.284 33.7467 30.1824C33.2542 30.1183 32.7686 30.0164 32.292 29.871C32.1723 29.8345 32.0906 29.9003 32.093 30.0364C32.1188 31.4905 32.357 32.8974 32.9598 34.2228C33.1345 34.6068 33.3404 34.9723 33.5824 35.3152C33.5979 35.3373 33.6099 35.3619 33.6236 35.3851C33.5691 35.3894 33.5384 35.3459 33.5103 35.3121C33.3524 35.122 33.2001 34.9277 33.0759 34.7103C32.7907 34.2111 32.5791 33.6779 32.3883 33.1349C32.2771 32.8181 32.2143 32.487 32.1265 32.1635C32.0384 31.8387 31.9563 31.5126 31.923 31.1781C31.8896 30.8421 31.8499 30.505 31.8773 30.1644C31.8919 29.9825 31.9616 29.829 32.058 29.6838C32.0873 29.6396 32.1339 29.6419 32.1759 29.6553C32.6273 29.7998 33.0945 29.8748 33.5522 29.9915C33.7583 30.0441 33.9779 30.0572 34.1952 30.0491C34.327 30.0442 34.4601 30.051 34.5916 30.0641C34.8389 30.0886 35.0909 30.1263 35.3338 30.0873C35.5935 30.0456 35.853 30.0538 36.1117 30.035C36.5899 30.0003 37.065 29.9455 37.5383 29.8708C38.0495 29.7901 38.5389 29.6336 39.0091 29.4115C39.1686 29.3362 39.2819 29.3871 39.2949 29.5395L39.2948 29.54Z" fill="#F6BC4A"/>
<path d="M35.2078 29.2793C34.6759 29.1593 34.2481 28.8899 34.0289 28.3507C33.8942 28.0193 33.9816 27.6184 34.2258 27.4318C34.3386 27.3455 34.4698 27.3102 34.6029 27.2791C34.7731 27.2391 34.9419 27.195 35.1097 27.1217C35.0395 27.0744 34.9747 27.0395 34.9202 26.992C34.832 26.9154 34.8346 26.7937 34.9177 26.737C34.9617 26.707 35.0084 26.7019 35.0464 26.7389C35.2458 26.9332 35.5056 27.0074 35.7454 27.1201C35.9864 27.2334 36.2479 27.2831 36.5005 27.3591C36.7098 27.4222 36.8835 27.5434 37.0447 27.6889C37.082 27.7756 37.1426 27.8536 37.1378 27.9559C37.1319 28.0831 37.1142 28.2086 37.075 28.3296C36.8574 29.001 36.1993 29.3523 35.5947 29.3115C35.4656 29.3028 35.3367 29.2902 35.2078 29.2793ZM36.7883 28.0176C36.8513 27.947 36.8345 27.8854 36.7733 27.8232C36.6568 27.7048 36.5195 27.6251 36.3634 27.5809C36.071 27.4981 35.7745 27.4289 35.4982 27.2943C35.4575 27.2745 35.4233 27.284 35.3841 27.299C35.2442 27.3527 35.1042 27.4076 34.9616 27.4526C34.8066 27.5015 34.6458 27.5318 34.4921 27.5846C34.3005 27.6503 34.2059 27.8368 34.2391 28.0417C34.2836 28.3151 34.4366 28.5125 34.6489 28.6627C34.9436 28.8713 35.2656 28.9823 35.6281 28.9217C35.6545 28.9202 35.681 28.9208 35.707 28.9169C36.2362 28.8356 36.5726 28.5044 36.7885 28.0177L36.7883 28.0176Z" fill="#451611"/>
<path d="M43.1099 24.8254C42.9487 23.6803 42.4848 22.7284 41.4375 22.2075C40.5737 21.778 39.6522 21.9618 38.9706 22.6748C38.5903 23.0724 38.3557 23.5524 38.217 24.0915C38.1339 24.4142 38.1127 24.7434 38.0953 25.0712C38.0816 25.332 38.1076 25.5968 38.1671 25.8545C38.1724 25.8776 38.1716 25.9021 38.1736 25.9261C38.0986 25.9644 38.1023 25.8965 38.093 25.857C38.0408 25.6316 38.0057 25.4048 37.9961 25.171C37.9815 24.8181 38.0076 24.4675 38.0627 24.1233C38.1614 23.5082 38.3621 22.928 38.7551 22.4418C39.1639 21.936 39.6938 21.6437 40.3273 21.6027C41.012 21.5582 41.6103 21.7943 42.0976 22.3049C42.6744 22.9095 43.0099 23.6367 43.1147 24.4795C43.1235 24.5504 43.1319 24.6215 43.1578 24.6888C43.1381 24.7329 43.1817 24.8009 43.1099 24.8254Z" fill="#F6BC4A"/>
<path d="M28.5662 35.5894C28.4927 35.7126 28.4137 35.8282 28.2802 35.8927C27.9717 36.0416 27.6175 35.8974 27.4636 35.5566C27.3853 35.3832 27.3484 35.2009 27.355 35.0095C27.3644 34.8826 27.3809 34.7573 27.4314 34.6395C27.5255 34.4209 27.6783 34.2649 27.9121 34.2418C28.1498 34.2184 28.3418 34.3222 28.4741 34.5366C28.6808 34.8718 28.6917 35.2239 28.5662 35.5896L28.5662 35.5894Z" fill="#B77C3B"/>
<path d="M29.9832 21.6985C29.7505 21.7916 29.573 21.9621 29.406 22.1457C29.3467 22.2111 29.2694 22.2111 29.1996 22.2065C29.167 22.2044 29.1143 22.1544 29.123 22.0908C29.1272 22.0198 29.1346 21.9514 29.1746 21.8883C29.2085 21.8349 29.231 21.7739 29.2586 21.7163C29.3933 21.4338 29.5417 21.1604 29.7506 20.9276C29.9743 20.6783 30.2826 20.6412 30.539 20.7723C30.6726 20.8406 30.7868 20.937 30.894 21.0454C30.971 21.1233 31.0222 21.2226 31.1039 21.2953L31.1036 21.2932C31.0877 21.3652 31.156 21.4134 31.1533 21.4817C31.0936 21.6196 31.0776 21.6278 30.9359 21.591C30.6448 21.5156 30.3583 21.5399 30.0774 21.6399C30.0464 21.651 29.994 21.6451 29.9833 21.6987L29.9832 21.6985Z" fill="#451611"/>
<path d="M34.7154 17.2255C35.0619 17.1612 35.3907 17.2091 35.6999 17.388C35.9424 17.5282 36.1319 17.7139 36.2151 17.9993C36.2849 18.2387 36.2596 18.4667 36.1476 18.6853C35.9179 19.1337 35.5351 19.3613 35.069 19.4136C34.7765 19.4464 34.474 19.4134 34.1946 19.2826C34.0625 19.2208 33.9514 19.1317 33.8641 19.0116C33.9027 19.0189 33.9416 19.0249 33.98 19.0339C34.0723 19.0559 34.1642 19.0788 34.2597 19.0562C34.3047 19.0666 34.3493 19.0807 34.3949 19.0867C34.8815 19.1485 35.4768 18.8996 35.7349 18.3552C35.8448 18.1232 35.8137 17.8693 35.6561 17.67C35.5769 17.5698 35.4792 17.4993 35.3768 17.4314C35.3667 17.3877 35.3287 17.3806 35.2967 17.364C35.1139 17.2685 34.916 17.241 34.7156 17.2257L34.7154 17.2255Z" fill="#B77C3B"/>
<path d="M40.6832 20.9248C40.7228 21.0084 40.7594 21.0928 40.7268 21.1893C40.6834 21.226 40.6352 21.2358 40.5788 21.2282C40.4784 21.215 40.4166 21.1373 40.3441 21.0808C39.8999 20.7343 39.4214 20.6016 38.8816 20.8089C38.8254 20.8306 38.7624 20.8491 38.7037 20.8069C38.6546 20.7581 38.6554 20.7055 38.6731 20.6383C38.7451 20.3655 38.9213 20.174 39.1215 19.9999C39.2802 19.8622 39.4649 19.8175 39.667 19.8457C39.8559 19.8721 39.9913 19.9945 40.1165 20.1294C40.3387 20.3687 40.5099 20.6474 40.6829 20.9246L40.6832 20.9248Z" fill="#451611"/>
<path d="M32.9151 24.627C32.8358 24.4728 32.7829 24.3063 32.7007 24.153C32.4337 23.6551 32.0764 23.2516 31.5686 23.0174C30.9309 22.7235 30.2893 22.7259 29.6647 23.0582C28.9756 23.4248 28.5515 24.0292 28.2955 24.7707C28.1792 25.1074 28.1127 25.4584 28.0994 25.8154C28.0922 26.012 28.0811 26.2115 28.116 26.4082C28.1201 26.4311 28.114 26.456 28.1128 26.4799C28.0231 26.4207 28.0526 26.3183 28.042 26.2375C28.0007 25.9168 28.0038 25.593 28.0489 25.2734C28.1004 24.9097 28.1989 24.5589 28.3494 24.223C28.5043 23.8777 28.6997 23.5638 28.9576 23.2924C29.3606 22.869 29.841 22.6133 30.4167 22.5522C31.1 22.4795 31.6619 22.7426 32.1461 23.2161C32.5057 23.5678 32.7502 23.9973 32.8995 24.4854C32.9133 24.5307 32.9294 24.5774 32.915 24.6268L32.9151 24.627Z" fill="#F6BC4A"/>
<path d="M28.2186 27.0318C28.2866 27.1844 28.3257 27.3483 28.3955 27.5006C28.6483 28.0514 29.0091 28.498 29.5377 28.7827C29.7625 28.9037 30.0019 28.971 30.2552 29.0066C30.8818 29.0949 31.4314 28.9136 31.921 28.5194C32.3424 28.1798 32.6369 27.7382 32.8347 27.2266C32.9888 26.8281 33.0723 26.4118 33.0891 25.9846C33.1058 25.555 33.0603 25.1299 32.9327 24.7176C32.9971 24.6677 32.9842 24.7414 32.9905 24.7622C33.0612 24.9914 33.1126 25.2259 33.139 25.4647C33.1648 25.6992 33.1626 25.9349 33.1598 26.1715C33.1559 26.5293 33.0891 26.8733 32.9915 27.2102C32.8864 27.5734 32.7216 27.9111 32.4993 28.2161C32.1959 28.6323 31.8158 28.9432 31.3396 29.1189C31.0657 29.22 30.7835 29.2698 30.4911 29.2352C30.3821 29.2224 30.2728 29.2139 30.1636 29.2036C30.028 29.1398 29.9125 29.0413 29.7829 28.9675C29.6865 28.9127 29.5867 28.8635 29.4801 28.8344C29.369 28.8039 29.2638 28.7489 29.1463 28.7449C28.8027 28.4899 28.5609 28.1532 28.4044 27.7485C28.3178 27.5246 28.2637 27.2905 28.2065 27.0575C28.2049 27.0504 28.2143 27.0404 28.2186 27.0318Z" fill="#B77C3B"/>
<path d="M34.2595 19.0559C34.164 19.0787 34.0721 19.0558 33.9798 19.0337C33.9415 19.0245 33.9026 19.0187 33.8639 19.0113C33.7005 18.9352 33.548 18.8431 33.4263 18.7029C33.184 18.4237 33.1889 18.0733 33.4127 17.777C33.5967 17.5333 33.8428 17.3995 34.1201 17.31C34.3146 17.2472 34.5143 17.2346 34.7153 17.2254C34.9157 17.2407 35.1135 17.2682 35.2964 17.3637C35.3282 17.3803 35.3663 17.3874 35.3765 17.4309C35.2886 17.3906 35.1978 17.357 35.1018 17.3508C34.6084 17.3192 34.1984 17.4942 33.8947 17.9031C33.7665 18.0756 33.6807 18.2721 33.7216 18.5017C33.7775 18.8146 33.9971 18.958 34.2595 19.0559Z" fill="#F6BC4A"/>
<path d="M43.1096 24.8255C43.1816 24.8011 43.138 24.7331 43.1575 24.6889C43.2185 24.8783 43.2343 25.0763 43.2556 25.2725C43.2822 25.5179 43.2741 25.7667 43.2484 26.0095C43.2151 26.3242 43.1553 26.6372 43.0405 26.9354C42.8783 27.3568 42.6379 27.7211 42.3225 28.0338L42.323 28.0333C42.3153 28.0394 42.3076 28.0455 42.2999 28.0516C42.0974 28.0899 41.8937 28.1219 41.698 28.192C41.6773 28.1994 41.6525 28.1945 41.6295 28.1953C41.7307 28.1304 41.8356 28.0711 41.9323 28C42.4865 27.5928 42.8214 27.0309 43.0014 26.3605C43.0699 26.1054 43.1198 25.8464 43.1316 25.5823C43.1429 25.33 43.1487 25.0765 43.1095 24.8253L43.1096 24.8255Z" fill="#B77C3B"/>
<path d="M40.683 20.9247C40.5101 20.6475 40.3387 20.3686 40.1167 20.1295C39.9915 19.9946 39.8561 19.8723 39.6671 19.8459C39.4651 19.8177 39.2802 19.8624 39.1217 20.0001C38.9213 20.1739 38.7453 20.3654 38.6733 20.6384C38.6556 20.7056 38.6548 20.7582 38.7037 20.807C38.6791 20.8056 38.6545 20.8039 38.6301 20.8025C38.5652 20.7695 38.5756 20.7036 38.5738 20.6484C38.5657 20.382 38.613 20.1251 38.7555 19.9015C38.9344 19.6205 39.2635 19.529 39.5933 19.637C39.9675 19.7596 40.2253 20.0243 40.4417 20.348C40.5235 20.4703 40.5875 20.6013 40.6465 20.7354C40.6721 20.7937 40.7175 20.8525 40.6832 20.9251L40.683 20.9247Z" fill="#F6BC4A"/>
<path d="M41.5478 36.3291C41.5438 36.2362 41.5815 36.139 41.6468 36.052C41.8255 35.8143 42.1157 35.8476 42.2397 36.1197C42.3295 36.3166 42.2271 36.6641 42.0514 36.771C41.9385 36.8396 41.8248 36.8502 41.713 36.7794C41.5929 36.7035 41.5407 36.584 41.538 36.4405C41.5374 36.4096 41.5433 36.3787 41.5479 36.3291L41.5478 36.3291Z" fill="#B77C3B"/>
<path d="M31.1039 21.2948C31.0224 21.2223 30.9711 21.1228 30.894 21.0449C30.7868 20.9366 30.6728 20.8401 30.539 20.7718C30.2826 20.6407 29.9743 20.678 29.7506 20.9271C29.5417 21.1599 29.3933 21.4333 29.2586 21.7158C29.2311 21.7734 29.2085 21.8345 29.1746 21.8878C29.1346 21.9509 29.1272 22.0193 29.123 22.0903C29.0612 22.0634 29.0617 22.0041 29.0808 21.9596C29.1734 21.7452 29.1977 21.512 29.2627 21.2906C29.3316 21.056 29.4195 20.8266 29.6039 20.6597C29.7296 20.5459 29.8699 20.4721 30.0506 20.4751C30.3628 20.4803 30.5981 20.6289 30.8033 20.8531C30.8254 20.8771 30.8539 20.895 30.8794 20.9156C30.8854 20.9234 30.8917 20.9313 30.8977 20.9391L30.8965 20.938C30.9339 20.9892 30.9779 21.0366 31.0068 21.0925C31.041 21.1586 31.1151 21.2051 31.1036 21.2944L31.1039 21.2948Z" fill="#F6BC4A"/>
<path d="M35.2078 29.279C35.3367 29.2899 35.4655 29.3026 35.5946 29.3112C36.1995 29.3521 36.8574 29.0008 37.075 28.3293C37.1142 28.2082 37.1319 28.0829 37.1378 27.9556C37.1425 27.8536 37.082 27.7754 37.0446 27.6887C37.1555 27.7241 37.2005 27.8243 37.2393 27.9203C37.2961 28.0603 37.3143 28.211 37.3197 28.3631C37.3282 28.6003 37.1833 28.7554 37.0348 28.8954C36.6556 29.2537 36.2087 29.4293 35.6902 29.3838C35.5449 29.3711 35.3998 29.356 35.2578 29.3195C35.2338 29.3133 35.2121 29.3089 35.2076 29.279L35.2078 29.279Z" fill="#B77C3B"/>
<path d="M28.8696 28.6975C28.5678 28.6888 28.2674 28.7106 27.9695 28.7572C27.8357 28.7783 27.7033 28.8212 27.5754 28.8691C27.4402 28.9198 27.2955 28.9471 27.1717 29.0274C26.9559 29.1674 26.7199 29.2832 26.5521 29.487C26.3556 29.7256 26.2136 29.9968 26.1913 30.3198C26.105 29.9965 26.193 29.7112 26.3764 29.4516C26.7309 28.9502 27.24 28.7511 27.8099 28.6727C28.1295 28.6288 28.4488 28.6311 28.7685 28.6669C28.8033 28.6707 28.8433 28.661 28.8696 28.6973L28.8696 28.6975Z" fill="#FABF4C"/>
<path d="M38.8492 27.4201C39.0297 27.6218 39.2113 27.8228 39.4348 27.9755C39.7053 28.1606 39.994 28.2927 40.317 28.3562C40.6603 28.4237 40.9931 28.4056 41.326 28.3104C41.335 28.3079 41.3456 28.3112 41.3555 28.3117C41.3193 28.3835 41.2428 28.387 41.1838 28.4201C41.1488 28.4154 41.1216 28.4357 41.0923 28.45C40.9838 28.5026 40.8751 28.5546 40.7665 28.607C40.3496 28.5719 39.9527 28.4649 39.583 28.2567C39.3814 28.1432 39.208 28.0005 39.0852 27.7946C39.0244 27.6927 38.9337 27.612 38.8775 27.5052C38.863 27.4776 38.8451 27.4534 38.849 27.4199L38.8492 27.4201Z" fill="#B77C3B"/>
<path d="M38.6299 20.8021C38.6545 20.8036 38.6789 20.8052 38.7035 20.8066C38.7622 20.8488 38.8252 20.8302 38.8814 20.8087C39.4211 20.6013 39.8997 20.7341 40.3439 21.0805C40.4164 21.137 40.4782 21.2148 40.5786 21.228C40.635 21.2354 40.6832 21.2258 40.7266 21.189C40.704 21.2927 40.6324 21.3266 40.5118 21.2772C40.4073 21.2343 40.2991 21.1911 40.208 21.1252C40.0339 20.9989 39.837 20.9454 39.6357 20.9055C39.4638 20.8714 39.2934 20.904 39.1254 20.9497C39.0299 20.9757 38.9332 21.0092 38.8326 20.9872C38.7331 20.9655 38.6574 20.9109 38.6301 20.8022L38.6299 20.8021Z" fill="#B77C3B"/>
<path d="M28.5662 35.5903C28.6918 35.2246 28.6808 34.8726 28.4741 34.5373C28.3419 34.3229 28.1499 34.2191 27.9121 34.2425C27.6783 34.2656 27.5256 34.4214 27.4315 34.6402C27.3808 34.758 27.3643 34.8833 27.3551 35.0102C27.2673 34.5991 27.4855 34.11 28.0276 34.1271C28.1773 34.1319 28.3085 34.2184 28.4251 34.3213C28.7158 34.5778 28.8124 35.128 28.6568 35.479C28.637 35.5234 28.6268 35.5799 28.5662 35.5903Z" fill="#F6BC4A"/>
<path d="M31.1038 21.2954C31.1154 21.206 31.0413 21.1594 31.0071 21.0935C30.9782 21.0376 30.9342 20.9902 30.8968 20.9389C31.0832 20.9929 31.1729 21.1511 31.2618 21.308C31.2951 21.3667 31.3161 21.4329 31.3433 21.4953C31.3836 21.5879 31.345 21.6615 31.2898 21.7304C31.2353 21.7984 31.1643 21.7857 31.0975 21.7642C30.7506 21.6523 30.4026 21.5737 30.0423 21.7013C30.025 21.7075 30.0031 21.7001 29.9833 21.699C29.994 21.6452 30.0462 21.6511 30.0774 21.6401C30.3583 21.5402 30.6449 21.5159 30.9358 21.5912C31.0775 21.628 31.0936 21.6198 31.1532 21.482C31.2089 21.431 31.1902 21.3601 31.1035 21.2935L31.1038 21.2956L31.1038 21.2954Z" fill="#B77C3B"/>
<path d="M40.7664 28.6073C40.875 28.5551 40.9837 28.5029 41.0922 28.4503C41.1215 28.4361 41.1486 28.4157 41.1837 28.4205C41.096 28.5283 40.9658 28.5814 40.872 28.6816C40.6602 28.9075 40.5131 29.1552 40.5141 29.4911C40.5145 29.6508 40.5515 29.7948 40.6024 29.9322C40.6315 30.011 40.676 30.1027 40.7464 30.1641C40.7705 30.1851 40.7685 30.2026 40.7551 30.2255C40.6951 30.214 40.6706 30.1591 40.6422 30.116C40.4074 29.7593 40.2957 29.3837 40.4906 28.9651C40.539 28.8611 40.6118 28.7777 40.6901 28.6982C40.7179 28.67 40.7589 28.6537 40.7664 28.6071L40.7664 28.6073Z" fill="#FABF4C"/>
<path d="M40.7551 30.2251C40.8018 30.2362 40.826 30.2664 40.8273 30.3162C40.78 30.3057 40.7557 30.2754 40.7551 30.2251Z" fill="#FABF4C"/>
<path d="M40.8266 30.3154C40.8665 30.3217 40.8861 30.3511 40.9006 30.3859C40.8572 30.3835 40.8238 30.3697 40.8266 30.3154Z" fill="#FABF4C"/>
<path d="M40.9003 30.3857C40.9387 30.3912 40.9559 30.4148 40.9559 30.4539C40.9171 30.4491 40.8984 30.4265 40.9003 30.3857Z" fill="#FABF4C"/>
<path d="M28.9859 28.7282C28.958 28.7254 28.927 28.7327 28.9081 28.7016C28.9469 28.6701 28.9639 28.7068 28.9859 28.7282Z" fill="#FABF4C"/>
<path d="M33.6208 35.3838C33.6362 35.3891 33.6475 35.3985 33.6506 35.4162C33.6343 35.4118 33.6198 35.4055 33.6208 35.3838Z" fill="#F6BC4A"/>
<path d="M26.0732 33.5103C26.0761 33.5125 26.0789 33.5149 26.0818 33.5171C26.0789 33.5149 26.0761 33.5125 26.0734 33.5103L26.0732 33.5103Z" fill="#FABF4C"/>
<path d="M38.4867 33.2205C38.4494 33.4687 38.3794 33.7082 38.3019 33.9456C38.1366 34.4523 37.9103 34.9245 37.567 35.3291C37.2555 35.6962 36.8815 35.9571 36.4091 36.0453C35.9337 36.1341 35.5083 35.9936 35.1097 35.7369C34.8976 35.6005 34.7028 35.4412 34.5322 35.2513C34.5409 35.1209 34.5512 34.9912 34.5966 34.8673C34.7622 34.416 35.0836 34.1072 35.4627 33.8529C35.9339 33.5369 36.4542 33.3494 37.0009 33.2365C37.2765 33.1796 37.5559 33.1473 37.837 33.1568C38.0543 33.1642 38.2743 33.154 38.4867 33.2203L38.4867 33.2205Z" fill="#F3A264"/>
<path d="M38.4869 33.22C38.2744 33.1538 38.0545 33.164 37.8372 33.1566C37.5561 33.147 37.2767 33.1793 37.0011 33.2363C36.4542 33.3492 35.934 33.5367 35.4629 33.8526C35.0838 34.1068 34.7624 34.4156 34.5968 34.867C34.5513 34.991 34.541 35.1207 34.5323 35.2511C34.3544 35.0678 34.1802 34.8816 34.0592 34.6502C34.0923 34.6183 34.1014 34.5731 34.1189 34.5327C34.2 34.347 34.298 34.1717 34.4189 34.011C34.7228 33.6065 35.1108 33.3173 35.5617 33.1137C36.25 32.8029 36.9644 32.6447 37.7186 32.7056C37.8714 32.7179 38.0184 32.764 38.1711 32.7737C38.1829 32.7774 38.1945 32.7812 38.2062 32.7849C38.2205 32.7903 38.2347 32.7959 38.249 32.8013C38.3152 32.8294 38.3799 32.8628 38.4479 32.8846C38.5431 32.9152 38.5476 32.9861 38.5213 33.0613C38.5029 33.1139 38.4989 33.1676 38.487 33.2202L38.4869 33.22Z" fill="#F2956E"/>
<path d="M38.1709 32.7733C38.0183 32.7636 37.8713 32.7177 37.7184 32.7052C36.9641 32.6443 36.2498 32.8025 35.5614 33.1133C35.1106 33.3169 34.7226 33.6061 34.4186 34.0106C34.2977 34.1715 34.1997 34.3466 34.1187 34.5323C34.1011 34.5727 34.0921 34.6179 34.0589 34.6498C33.965 34.5688 33.9171 34.4033 33.954 34.2907C34.052 33.9914 34.2451 33.7586 34.4602 33.5487C35.0794 32.9438 35.8312 32.6461 36.6681 32.5648C36.9519 32.5373 37.2391 32.5354 37.5207 32.5852C37.7424 32.6244 37.9684 32.6576 38.1707 32.7731L38.1709 32.7733Z" fill="#8B5028"/>
<path d="M38.2489 32.8014C38.2346 32.796 38.2203 32.7904 38.2059 32.785C38.2252 32.7768 38.2393 32.783 38.2489 32.8014Z" fill="#8B5028"/>
<path d="M40.8413 29.2968C40.8698 29.0187 41.0082 28.8358 41.1779 28.6705C41.4201 28.4349 41.7145 28.3218 42.0381 28.3036C42.2829 28.2896 42.5131 28.3546 42.7061 28.5304C43.0204 28.8166 42.9321 29.2304 42.7096 29.5067C42.4769 29.7954 42.1825 29.9739 41.8288 30.0302C41.5964 30.0672 41.3577 30.0687 41.1467 29.9212C40.923 29.7648 40.803 29.5579 40.8413 29.2968Z" fill="#F3A264"/>
<path d="M41.3557 28.3117C41.3638 28.2913 41.3805 28.2932 41.397 28.294C41.3877 28.3108 41.3736 28.3159 41.3557 28.3117Z" fill="#B77C3B"/>
<path d="M42.3002 28.0525C42.3081 28.0463 42.3159 28.0401 42.3237 28.0339L42.3002 28.0525Z" fill="#EEA942"/>
<path d="M27.7696 29.064C27.9677 29.0865 28.1399 29.1132 28.2712 29.2524C28.4455 29.4371 28.4578 29.6569 28.3886 29.8882C28.3051 30.1672 28.1192 30.3629 27.8921 30.5246C27.7449 30.6296 27.5862 30.7124 27.4162 30.7594C27.2415 30.8078 27.0625 30.8224 26.8785 30.7742C26.7517 30.7409 26.6267 30.7179 26.5363 30.6109C26.4206 30.4738 26.3564 30.3301 26.383 30.1308C26.4295 29.782 26.6296 29.5638 26.882 29.3628C27.044 29.2339 27.2243 29.1559 27.4121 29.0987C27.5318 29.0624 27.6628 29.0346 27.7694 29.0639L27.7696 29.064Z" fill="#F3A264"/>
<path d="M42.8572 24.8671C42.8898 25.0289 42.8967 25.1949 42.8908 25.3574C42.8645 26.0941 42.6715 26.774 42.2083 27.3497C41.861 27.7812 41.4243 28.0567 40.8786 28.1233C40.4238 28.1789 40.0114 28.0476 39.6351 27.7911C39.082 27.4141 38.7374 26.8731 38.5246 26.2336C38.4204 25.9205 38.3554 25.599 38.348 25.2664C38.4488 25.3152 38.4721 25.4275 38.5268 25.5118C38.7141 25.8007 38.8829 26.1036 39.1396 26.3366C39.2778 26.4621 39.4105 26.5956 39.5798 26.6781C39.6542 26.7515 39.7255 26.8287 39.8036 26.8975C40.1246 27.1797 40.4908 27.3122 40.9141 27.2472C41.0016 27.34 41.1089 27.3749 41.2328 27.3856C41.6233 27.4195 41.8491 27.1419 41.7382 26.7562C41.8579 26.5942 41.9547 26.4172 42.0486 26.2385C42.0659 26.2395 42.0794 26.234 42.0924 26.2203C42.4294 25.8742 42.6308 25.443 42.8049 24.9954C42.8217 24.9522 42.8139 24.8987 42.8572 24.867L42.8572 24.8671Z" fill="#5A975B"/>
<path d="M38.5211 23.9319C38.7719 23.2107 39.1927 22.6493 39.8998 22.359C40.1118 22.272 40.3335 22.2401 40.5609 22.2435C41.1232 22.252 41.5759 22.5109 41.9701 22.9039C42.2121 23.1452 42.3971 23.4287 42.5433 23.7409C42.5609 23.7783 42.5799 23.8144 42.577 23.8578C42.5625 23.8496 42.5456 23.8442 42.5339 23.833C42.3055 23.6158 42.0281 23.4867 41.7483 23.3621C41.7212 23.3501 41.6929 23.3152 41.6589 23.351C41.4639 23.1264 41.2421 22.9398 40.9615 22.8434C40.8157 22.7933 40.6671 22.7472 40.5093 22.7763C40.3237 22.708 40.1334 22.691 39.9367 22.6994C39.7008 22.7096 39.5099 22.8213 39.3393 22.9705C39.1283 23.155 39.0108 23.3964 38.9971 23.6868C38.8828 23.6746 38.7832 23.7088 38.6957 23.7857C38.6386 23.8359 38.5792 23.8834 38.5209 23.9321L38.5211 23.9319Z" fill="#3C5A3C"/>
<path d="M38.5213 23.9322C38.5796 23.8835 38.6389 23.836 38.696 23.7858C38.7835 23.709 38.8833 23.6748 38.9974 23.6869C38.9876 23.8962 38.9592 24.108 39.0801 24.2982C39.0518 24.3706 39.0302 24.4444 39.0226 24.5226C39.0049 24.7032 39.0049 24.884 39.0115 25.0652C39.0238 25.3969 39.0936 25.7142 39.2116 26.0232C39.3029 26.2621 39.4363 26.4726 39.5796 26.6787C39.4103 26.5961 39.2776 26.4627 39.1394 26.3371C38.8825 26.1042 38.7139 25.8013 38.5266 25.5124C38.4719 25.4281 38.4487 25.316 38.3478 25.267L38.3505 25.2662C38.3526 25.2442 38.3605 25.2214 38.3405 25.2033C38.3367 25.0504 38.324 24.8974 38.3407 24.7448C38.3712 24.4669 38.428 24.1952 38.5211 23.932L38.5213 23.9322Z" fill="#4E7A4F"/>
<path d="M41.659 23.3509C41.693 23.3151 41.7213 23.3499 41.7483 23.362C42.0282 23.4866 42.3056 23.6157 42.5339 23.8329C42.5457 23.844 42.5626 23.8495 42.5771 23.8577C42.6781 23.9998 42.7106 24.1703 42.7566 24.3342C42.8055 24.5082 42.8442 24.6854 42.8569 24.8671C42.8136 24.8989 42.8214 24.9523 42.8046 24.9955C42.6305 25.4432 42.4291 25.8744 42.0922 26.2205C42.0789 26.234 42.0656 26.2397 42.0483 26.2386C42.1086 26.0396 42.1744 25.8412 42.2047 25.6348C42.2525 25.3076 42.2572 24.9785 42.2071 24.6504C42.1333 24.1678 41.9585 23.7311 41.659 23.3509Z" fill="#4E7A4F"/>
<path d="M38.3408 25.2029C38.3609 25.2211 38.3531 25.244 38.3509 25.2661C38.3279 25.2484 38.3367 25.2253 38.3408 25.2029Z" fill="#5A975B"/>
<path d="M32.8228 25.3974C32.8606 25.705 32.8713 26.0147 32.818 26.3195C32.6509 27.2762 32.2397 28.0708 31.3815 28.5479C31.0886 28.7108 30.7717 28.7875 30.435 28.7729C29.933 28.7513 29.5161 28.5328 29.1654 28.1764C28.6596 27.6624 28.4176 27.0194 28.3519 26.298C28.3349 26.1108 28.318 25.9228 28.3463 25.7349C28.4115 25.8132 28.4357 25.913 28.4718 26.0052C28.5891 26.3053 28.7408 26.5847 28.9251 26.8456C29.2303 27.2775 29.6292 27.5743 30.1229 27.7301C30.1915 27.7518 30.2614 27.7922 30.3392 27.7656C30.4621 27.7931 30.5849 27.8206 30.7115 27.8208C30.7817 27.9925 30.9115 28.0568 31.0861 28.0704C31.4456 28.0985 31.6649 27.8642 31.6099 27.4969C31.7304 27.4925 31.7761 27.3813 31.8434 27.3093C32.0347 27.1047 32.1821 26.8627 32.3473 26.6362C32.6008 26.2887 32.7851 25.9102 32.8003 25.4625C32.8012 25.4391 32.8006 25.4135 32.8225 25.3972L32.8228 25.3974Z" fill="#5A975B"/>
<path d="M30.3393 27.7656C30.2615 27.7922 30.1916 27.7518 30.1229 27.7301C29.6292 27.5743 29.2301 27.2775 28.9251 26.8456C28.7408 26.5848 28.5891 26.3055 28.4719 26.0052C28.4359 25.913 28.4117 25.8132 28.3464 25.7349C28.3504 25.5822 28.375 25.4327 28.4108 25.2849C28.4476 25.2825 28.46 25.2508 28.4724 25.2242C28.5657 25.0235 28.694 24.8486 28.8481 24.6964C28.9492 24.5964 29.0661 24.5151 29.2191 24.5327C29.2306 24.6239 29.2422 24.715 29.2537 24.8061C29.2502 24.8369 29.2488 24.8681 29.2429 24.8985C29.1795 25.2296 29.1415 25.5632 29.1718 25.9008C29.2147 26.3796 29.3623 26.8206 29.639 27.209C29.8199 27.4631 30.0587 27.644 30.3393 27.7656Z" fill="#4E7A4F"/>
<path d="M29.2193 24.5323C29.0661 24.5148 28.9494 24.596 28.8483 24.6959C28.6942 24.8481 28.5659 25.0231 28.4726 25.2238C28.4603 25.2504 28.4477 25.2822 28.411 25.2845C28.5403 24.6933 28.7889 24.1688 29.2059 23.7354C29.5932 23.3328 30.0543 23.0929 30.6035 23.0547C30.9381 23.0314 31.2513 23.1269 31.5424 23.2924C32.1294 23.6266 32.4813 24.1569 32.6918 24.8012C32.6958 24.8136 32.6937 24.8281 32.6946 24.8416C32.6698 24.8377 32.6533 24.8211 32.6395 24.8011C32.4716 24.5582 32.2462 24.3789 32.0165 24.2062C31.9246 24.137 31.8336 24.0544 31.7074 24.0564C31.6836 24.0283 31.6604 23.9999 31.6357 23.9726C31.4748 23.7938 31.2972 23.6404 31.0629 23.5756C30.946 23.513 30.8583 23.4089 30.7153 23.3777C30.5689 23.3458 30.4223 23.3102 30.2757 23.3137C30.1641 23.3162 30.0418 23.3007 29.9377 23.3607C29.8323 23.4213 29.7138 23.4605 29.6241 23.547C29.4976 23.6688 29.3737 23.7927 29.3088 23.967C29.2408 24.1498 29.2392 24.3423 29.2191 24.5323L29.2193 24.5323Z" fill="#3C5A3C"/>
<path d="M31.7073 24.0575C31.8336 24.0556 31.9246 24.1382 32.0165 24.2073C32.246 24.3801 32.4714 24.5593 32.6395 24.8023C32.6532 24.8221 32.6698 24.8389 32.6946 24.8427C32.7557 25.0231 32.7991 25.208 32.8229 25.3977C32.8009 25.4141 32.8014 25.4396 32.8007 25.4631C32.7855 25.9107 32.6009 26.2894 32.3477 26.6367C32.1823 26.8634 32.0349 27.1054 31.8438 27.3098C31.7765 27.3817 31.7308 27.493 31.6102 27.4974C31.6041 27.4834 31.5981 27.4695 31.5919 27.4555C31.6697 27.4234 31.7154 27.3538 31.7638 27.2901C32.1601 26.7672 32.2706 26.1574 32.2441 25.5141C32.2216 24.9705 32.0491 24.4788 31.7076 24.0579L31.7073 24.0575Z" fill="#4E7A4F"/>
<path d="M36.7884 28.0172C36.5725 28.504 36.2362 28.8351 35.7069 28.9163C35.681 28.9203 35.6543 28.9197 35.628 28.9211C35.6035 28.9113 35.5798 28.8969 35.5546 28.8921C35.3673 28.8569 35.1913 28.7945 35.0293 28.6868C34.9 28.6009 34.7552 28.3217 34.861 28.129C34.9214 28.019 34.9989 27.9278 35.1069 27.8663C35.3275 27.7403 35.5592 27.6682 35.8151 27.6583C36.057 27.6491 36.2814 27.6802 36.4865 27.8192C36.5862 27.8867 36.6877 27.9511 36.7882 28.017L36.7884 28.0172Z" fill="#EEA942"/>
<path d="M36.7881 28.0173C36.6874 27.9514 36.5859 27.887 36.4864 27.8196C36.2811 27.6806 36.0569 27.6494 35.815 27.6586C35.5591 27.6683 35.3274 27.7407 35.1068 27.8666C34.9988 27.9282 34.9213 28.0193 34.8609 28.1294C34.7551 28.3221 34.8999 28.6012 35.0292 28.6872C35.1911 28.795 35.3671 28.8572 35.5544 28.8924C35.5797 28.8972 35.6034 28.9114 35.6279 28.9215C35.2654 28.982 34.9433 28.871 34.6486 28.6625C34.4364 28.5123 34.2833 28.3149 34.2389 28.0415C34.2055 27.8365 34.3 27.6501 34.4918 27.5844C34.6455 27.5317 34.8062 27.5013 34.9614 27.4523C35.1041 27.4074 35.2439 27.3526 35.3838 27.2987C35.423 27.2837 35.4573 27.2743 35.4979 27.294C35.7741 27.4286 36.0706 27.4979 36.3631 27.5806C36.5192 27.6249 36.6566 27.7044 36.7731 27.8229C36.8344 27.8854 36.8512 27.9469 36.7881 28.0173Z" fill="#F6BC4A"/>
<path d="M31.1036 21.293C31.1906 21.36 31.2094 21.4311 31.1535 21.4823C31.1563 21.4137 31.0877 21.3654 31.1036 21.293Z" fill="#F6BC4A"/>
<path d="M34.2598 19.0558C33.9974 18.9579 33.7777 18.8145 33.7219 18.5016C33.681 18.272 33.7667 18.0755 33.895 17.903C34.1987 17.4941 34.6085 17.3191 35.1021 17.3507C35.1981 17.3569 35.2888 17.3905 35.3768 17.4308C35.4791 17.4987 35.5768 17.5693 35.656 17.6694C35.8136 17.8687 35.8449 18.1227 35.7348 18.3547C35.4769 18.899 34.8814 19.1479 34.3948 19.0861C34.3492 19.0803 34.3048 19.066 34.2597 19.0556L34.2598 19.0558Z" fill="#451611"/>
<path d="M41.659 23.3507C41.9585 23.731 42.1335 24.1676 42.2071 24.6502C42.2572 24.9785 42.2527 25.3075 42.2046 25.6347C42.1744 25.841 42.1086 26.0394 42.0483 26.2384C41.9546 26.4172 41.8576 26.5941 41.7379 26.7562C41.6416 26.6228 41.501 26.5861 41.3541 26.5875C41.0321 26.5904 40.7123 26.8844 40.9138 27.2472C40.4905 27.3122 40.1243 27.1797 39.8034 26.8974C39.7252 26.8287 39.6539 26.7515 39.5795 26.6781C39.4362 26.472 39.3028 26.2615 39.2115 26.0226C39.0934 25.7136 39.0237 25.3963 39.0114 25.0646C39.0048 24.8834 39.0048 24.7026 39.0225 24.5221C39.0302 24.4439 39.0517 24.37 39.08 24.2977C39.1944 24.5836 39.3985 24.7799 39.6689 24.8959C40.0831 25.0734 40.4732 25.0158 40.8277 24.7299C40.8904 24.6795 40.9579 24.6224 40.994 24.5523C41.0684 24.4075 41.1603 24.2715 41.1835 24.0989C41.2241 23.7983 41.2141 23.5114 41.0582 23.2432C40.9904 23.1268 40.9068 23.0186 40.8032 22.9455C40.7126 22.8817 40.6414 22.7667 40.5095 22.776C40.6673 22.7471 40.8158 22.793 40.9617 22.8431C41.2424 22.9395 41.4641 23.1261 41.6591 23.3508L41.659 23.3507Z" fill="#1F100B"/>
<path d="M40.914 27.2471C40.7126 26.8843 41.0324 26.5903 41.3543 26.5874C41.5012 26.586 41.6418 26.6227 41.7381 26.7561C41.8491 27.1418 41.6232 27.4194 41.2327 27.3855C41.1088 27.3747 41.0016 27.3399 40.914 27.2471Z" fill="#FEFEFE"/>
<path d="M40.5097 22.776C40.6416 22.7667 40.7129 22.8818 40.8034 22.9456C40.907 23.0186 40.9906 23.1268 41.0584 23.2432C41.2144 23.5115 41.2243 23.7984 41.1837 24.099C41.1604 24.2716 41.0686 24.4075 40.9942 24.5523C40.9581 24.6225 40.8905 24.6795 40.8279 24.73C40.4734 25.0159 40.0833 25.0735 39.6691 24.8959C39.3987 24.7799 39.1948 24.5838 39.0802 24.2977C38.9593 24.1075 38.9877 23.8956 38.9975 23.6864C39.0112 23.396 39.1287 23.1548 39.3397 22.9701C39.5103 22.8209 39.7012 22.7091 39.9371 22.699C40.1338 22.6905 40.3241 22.7076 40.5097 22.7758L40.5097 22.776Z" fill="#FEFEFE"/>
<path d="M31.7073 24.0575C32.0489 24.4784 32.2215 24.9701 32.2438 25.5137C32.2703 26.1569 32.1598 26.7668 31.7635 27.2897C31.7153 27.3535 31.6695 27.423 31.5916 27.4551C31.4937 27.2629 31.1681 27.235 30.9894 27.3176C30.7737 27.4176 30.6769 27.5847 30.7115 27.8209C30.585 27.8208 30.4621 27.7933 30.3393 27.7658C30.0585 27.6441 29.82 27.4632 29.639 27.2092C29.3623 26.8206 29.2148 26.3796 29.1718 25.901C29.1415 25.5633 29.1795 25.2298 29.243 24.8986C29.2488 24.8683 29.2502 24.8371 29.2538 24.8063C29.263 24.8196 29.2753 24.8317 29.2812 24.8464C29.4048 25.1515 29.6032 25.3856 29.9001 25.5134C30.3185 25.6931 30.7119 25.6358 31.07 25.3472C31.1326 25.2967 31.1983 25.2381 31.2352 25.1678C31.3096 25.0267 31.4 24.8921 31.4197 24.7227C31.439 24.5554 31.4663 24.3858 31.4314 24.2226C31.3954 24.0542 31.3388 23.8866 31.2228 23.7524C31.171 23.6925 31.1163 23.6352 31.0629 23.5767C31.2973 23.6416 31.4748 23.795 31.6357 23.9738C31.6602 24.001 31.6834 24.0297 31.7073 24.0575Z" fill="#1F100B"/>
<path d="M30.7115 27.8205C30.6769 27.5843 30.7736 27.4172 30.9893 27.3172C31.1681 27.2344 31.4938 27.2625 31.5916 27.4547C31.5977 27.4687 31.6037 27.4826 31.6099 27.4966C31.665 27.864 31.4457 28.0981 31.0861 28.0702C30.9117 28.0566 30.7817 27.9924 30.7115 27.8205Z" fill="#FEFEFE"/>
<path d="M31.0628 23.5768C31.1162 23.6353 31.171 23.6924 31.2227 23.7525C31.3388 23.8867 31.3954 24.0544 31.4314 24.2227C31.4663 24.3858 31.4389 24.5555 31.4196 24.7228C31.4002 24.8922 31.3096 25.0267 31.2352 25.1679C31.1983 25.2381 31.1326 25.2967 31.0699 25.3472C30.712 25.6358 30.3184 25.6931 29.9001 25.5134C29.603 25.3858 29.4046 25.1517 29.2812 24.8465C29.2752 24.8318 29.2629 24.8197 29.2537 24.8064C29.2422 24.7152 29.2306 24.6241 29.2191 24.533C29.2392 24.343 29.2407 24.1506 29.3088 23.9677C29.3735 23.7936 29.4976 23.6695 29.6241 23.5477C29.7138 23.4614 29.8324 23.4221 29.9376 23.3614C30.0418 23.3015 30.1641 23.3171 30.2757 23.3144C30.4223 23.3109 30.5689 23.3465 30.7153 23.3784C30.8583 23.4096 30.9459 23.5139 31.0629 23.5763L31.0628 23.5768Z" fill="#FEFEFE"/>
</g>
</svg>
