<svg width="10" height="16" xmlns="http://www.w3.org/2000/svg"><path d="M4.019 0c1.95 0 3.129 1.271 3.128 2.853v6.844c.002 1.223-.773 2.15-2.115 2.139-1.358-.012-2.102-1.01-2.096-2.322V5.749a.65.65 0 111.3-.002V9.52c-.003.663.257 1.012.807 1.017.56.005.805-.289.804-.837V2.853c0-.885-.62-1.553-1.828-1.553-1.236 0-1.929.699-1.932 1.551v8.503c.008 1.576 1.063 2.663 3.022 2.693 2.234.033 2.946-1.019 2.993-3.487l.003-.236c.003-1.43.003-2.77 0-4.02a.65.65 0 011.3-.003l.002 1.946c0 .67 0 1.364-.002 2.08-.008 3.267-1.11 5.068-4.315 5.02-2.673-.04-4.291-1.708-4.303-3.987V2.847C.793 1.28 2.063 0 4.019 0z" fill="#B5BABE"/></svg>